<svg width="1446" height="434" viewBox="0 0 1446 434" fill="none" xmlns="http://www.w3.org/2000/svg">
<path d="M184.68 272.24C184.68 281.7 182.87 290.58 179.26 298.87C175.64 307.16 170.73 314.42 164.51 320.64C158.29 326.86 151.03 331.78 142.74 335.39C134.45 339.01 125.57 340.81 116.1 340.81H1.73975V112.1H116.09C125.55 112.1 134.43 113.91 142.73 117.52C151.02 121.14 158.28 126.05 164.5 132.27C170.72 138.49 175.64 145.75 179.25 154.04C182.86 162.33 184.67 171.21 184.67 180.67C184.67 184.92 184.08 189.28 182.91 193.75C181.74 198.22 180.09 202.52 177.97 206.67C175.84 210.82 173.29 214.59 170.31 217.99C167.33 221.39 164.04 224.21 160.42 226.44C164.14 228.46 167.49 231.2 170.47 234.65C173.45 238.11 176 241.91 178.13 246.05C180.26 250.2 181.88 254.53 182.99 259.05C184.12 263.6 184.68 267.99 184.68 272.24ZM47.5198 203.66H116.1C119.29 203.66 122.27 203.08 125.03 201.91C127.79 200.74 130.21 199.12 132.29 197.05C134.36 194.98 135.98 192.53 137.15 189.71C138.32 186.89 138.9 183.89 138.9 180.7C138.9 177.51 138.32 174.54 137.15 171.77C135.98 169.01 134.36 166.59 132.29 164.51C130.22 162.44 127.8 160.82 125.03 159.65C122.26 158.48 119.29 157.9 116.1 157.9H47.5198V203.66ZM47.5198 295.05H116.1C119.29 295.05 122.27 294.47 125.03 293.3C127.79 292.13 130.21 290.51 132.29 288.44C134.36 286.37 135.98 283.95 137.15 281.18C138.32 278.42 138.9 275.44 138.9 272.25C138.9 269.06 138.32 266.08 137.15 263.32C135.98 260.56 134.36 258.14 132.29 256.06C130.22 253.99 127.8 252.37 125.03 251.2C122.26 250.03 119.29 249.45 116.1 249.45H47.5198V295.05Z" fill="#071E3F"/>
<path d="M258.2 340.82H214.66V170.01H225.19L239.54 190.26C246.56 183.88 254.53 178.96 263.46 175.51C272.39 172.06 281.64 170.33 291.21 170.33H329.65V213.71H291.21C286.64 213.71 282.33 214.56 278.29 216.26C274.25 217.96 270.74 220.3 267.76 223.28C264.78 226.26 262.44 229.77 260.74 233.81C259.04 237.85 258.19 242.16 258.19 246.73V340.82H258.2Z" fill="#071E3F"/>
<path d="M349.91 170.01H393.77V340.82H349.91V170.01Z" fill="#071E3F"/>
<path d="M470.8 340.82H426.939V102.07H470.8V340.82Z" fill="#071E3F"/>
<path d="M547.83 340.82H503.97V102.07H547.83V340.82Z" fill="#071E3F"/>
<path d="M796.909 340.82H751.14V295.05H659.589V340.82H613.979V203.66C613.979 191.01 616.37 179.13 621.16 168.01C625.94 156.9 632.459 147.2 640.699 138.9C648.939 130.61 658.619 124.07 669.729 119.28C680.839 114.49 692.72 112.1 705.38 112.1C718.03 112.1 729.91 114.49 741.03 119.28C752.14 124.06 761.84 130.6 770.14 138.9C778.43 147.19 784.97 156.9 789.76 168.01C794.54 179.12 796.94 191 796.94 203.66V340.82H796.909ZM751.14 249.44V203.67C751.14 197.4 749.939 191.47 747.549 185.89C745.159 180.31 741.89 175.44 737.74 171.3C733.59 167.15 728.73 163.88 723.15 161.49C717.57 159.1 711.64 157.9 705.37 157.9C699.1 157.9 693.17 159.1 687.59 161.49C682.01 163.88 677.14 167.15 673 171.3C668.85 175.45 665.579 180.31 663.189 185.89C660.799 191.47 659.599 197.4 659.599 203.67V249.44H751.14Z" fill="#F9B928"/>
<path d="M955.92 320.89C952.41 324.08 948.66 327.09 944.68 329.9C940.69 332.72 936.52 335.16 932.16 337.24C927.8 339.31 923.31 340.96 918.68 342.18C914.05 343.4 909.35 344.01 904.57 344.01C894.04 344.01 884.16 342.15 874.91 338.43C865.66 334.71 857.55 329.42 850.59 322.56C843.62 315.7 838.15 307.36 834.16 297.52C830.17 287.69 828.18 276.66 828.18 264.43V170.01H871.56V264.43C871.56 270.17 872.44 275.3 874.19 279.82C875.95 284.34 878.31 288.14 881.29 291.22C884.27 294.31 887.75 296.64 891.74 298.24C895.73 299.83 900.01 300.63 904.58 300.63C909.05 300.63 913.27 299.59 917.26 297.52C921.25 295.45 924.73 292.71 927.71 289.31C930.68 285.91 933.02 282.05 934.73 277.75C936.43 273.44 937.28 269.01 937.28 264.43V170.01H980.82V340.82H970.29L955.92 320.89Z" fill="#F9B928"/>
<path d="M1099.62 340.82C1089.09 340.82 1079.21 338.83 1069.96 334.84C1060.71 330.85 1052.6 325.38 1045.64 318.41C1038.67 311.45 1033.2 303.34 1029.21 294.09C1025.22 284.84 1023.23 274.95 1023.23 264.42V213.7H1002.02V170.32H1023.23V102.06H1066.61V170.32H1132.64V213.7H1066.61V264.42C1066.61 268.99 1067.46 273.27 1069.16 277.26C1070.86 281.25 1073.2 284.73 1076.18 287.71C1079.16 290.69 1082.66 293.05 1086.71 294.81C1090.75 296.56 1095.06 297.44 1099.63 297.44H1132.64V340.82H1099.62Z" fill="#F9B928"/>
<path d="M1322.1 253.9C1322.1 266.66 1319.81 278.54 1315.24 289.55C1310.67 300.56 1304.45 310.07 1296.58 318.1C1288.71 326.13 1279.49 332.45 1268.91 337.08C1258.33 341.7 1246.98 344.02 1234.86 344.02C1222.84 344.02 1211.55 341.71 1200.97 337.08C1190.39 332.45 1181.14 326.13 1173.22 318.1C1165.3 310.07 1159.05 300.56 1154.48 289.55C1149.91 278.55 1147.62 266.66 1147.62 253.9C1147.62 240.93 1149.91 228.91 1154.48 217.86C1159.05 206.8 1165.3 197.26 1173.22 189.23C1181.14 181.2 1190.39 174.9 1200.97 170.33C1211.55 165.76 1222.84 163.47 1234.86 163.47C1246.98 163.47 1258.33 165.62 1268.91 169.93C1279.49 174.24 1288.71 180.35 1296.58 188.27C1304.45 196.19 1310.67 205.71 1315.24 216.82C1319.82 227.93 1322.1 240.29 1322.1 253.9ZM1278.24 253.9C1278.24 246.88 1277.1 240.53 1274.81 234.84C1272.52 229.15 1269.41 224.26 1265.48 220.17C1261.55 216.08 1256.95 212.94 1251.69 210.76C1246.43 208.58 1240.82 207.49 1234.86 207.49C1228.9 207.49 1223.3 208.58 1218.03 210.76C1212.77 212.94 1208.19 216.08 1204.31 220.17C1200.43 224.26 1197.37 229.16 1195.14 234.84C1192.91 240.53 1191.79 246.88 1191.79 253.9C1191.79 260.49 1192.91 266.61 1195.14 272.24C1197.37 277.88 1200.43 282.77 1204.31 286.91C1208.19 291.06 1212.76 294.33 1218.03 296.72C1223.29 299.11 1228.9 300.31 1234.86 300.31C1240.81 300.31 1246.42 299.19 1251.69 296.96C1256.95 294.73 1261.55 291.59 1265.48 287.55C1269.41 283.51 1272.52 278.62 1274.81 272.88C1277.1 267.14 1278.24 260.81 1278.24 253.9Z" fill="#F9B928"/>
<path d="M371.469 153.38C384.581 153.38 395.209 142.751 395.209 129.64C395.209 116.529 384.581 105.9 371.469 105.9C358.358 105.9 347.729 116.529 347.729 129.64C347.729 142.751 358.358 153.38 371.469 153.38Z" fill="#071E3F"/>
<path d="M647.9 38.0701H985.36C985.36 38.0701 1115.86 25.34 1147.14 104.71C1149.02 109.48 1153.53 112.68 1158.65 112.68L1231.24 110.98C1245.58 110.98 1275.21 113.45 1288.9 117.76C1323.83 128.77 1349.95 155.07 1368.6 195.77C1368.6 195.77 1379.52 121.82 1297.38 87.24C1265.13 73.66 1215.89 75.37 1174.52 75.29C1173.94 75.29 1173.43 74.9499 1173.2 74.4199C1169.53 65.7599 1138.09 0.75 1020.96 0.75L822.28 0.929932C822.28 0.939932 683.86 8.10007 647.9 38.0701Z" fill="#F9B928"/>
<path d="M1399 96C1407.27 74.3641 1424.36 57.2726 1446 49C1424.36 40.7274 1407.27 23.6359 1399 2C1390.73 23.6359 1373.64 40.7274 1352 49C1373.64 57.2726 1390.73 74.3641 1399 96Z" fill="#F9B928"/>
</svg>
