<svg width="1956" height="333" viewBox="0 0 1956 333" fill="none" xmlns="http://www.w3.org/2000/svg">
<path d="M426.571 145.4C370.777 149.385 341.239 157.908 310.495 225.338C215.048 225.338 176.869 244.894 85.2397 307.66L1956 332.435C1928.51 256.456 1842.2 197.978 1772.21 206.925C1772.21 165.088 1725.71 145.354 1673.74 155.244C1673.74 135.556 1604.82 110.04 1611.39 122.345C1628 153.494 1483.39 188.792 1463.69 117.423C1442.01 38.8245 1194.57 -81.0105 948.415 78.9537C948.415 78.9537 914.858 51.8829 849.954 51.8829C785.05 51.8829 695.698 58.1566 603.801 164.182C538.161 215.863 482.366 141.416 426.571 145.4Z" fill="white"/>
<ellipse cx="168.913" cy="234.592" rx="25.9867" ry="26.0733" fill="white"/>
<ellipse cx="591.192" cy="123.782" rx="19.49" ry="19.555" fill="white"/>
<ellipse cx="1858.06" cy="136.817" rx="19.49" ry="19.555" fill="white"/>
<ellipse cx="1572.19" cy="104.225" rx="12.9934" ry="13.0367" fill="white"/>
<ellipse cx="1923.02" cy="202.001" rx="32.4834" ry="32.5917" fill="white"/>
<ellipse cx="194.91" cy="169.408" rx="12.9933" ry="13.0367" fill="white"/>
<ellipse cx="12.9933" cy="156.372" rx="12.9933" ry="13.0367" fill="white"/>
</svg>
