<?xml version="1.0" encoding="UTF-8"?>
<svg xmlns="http://www.w3.org/2000/svg" xmlns:xlink="http://www.w3.org/1999/xlink" width="0" height="0">

  <symbol viewBox="0 0 17 17" id="mobile-phone">
    <path d="M15.9115 16.9423C13.9666 16.9423 12.0407 16.4807 10.1336 15.5576C8.22657 14.6346 6.52402 13.424 5.02595 11.9259C3.52787 10.4278 2.31569 8.72688 1.38943 6.82305C0.463142 4.91922 0 2.99487 0 1.05C0 0.75 0.1 0.5 0.3 0.3C0.5 0.1 0.75 0 1.05 0H4.31148C4.57046 0 4.79643 0.079809 4.98938 0.239426C5.18231 0.399042 5.30186 0.605134 5.34802 0.857701L5.9211 3.79998C5.96083 4.04613 5.95667 4.26984 5.9086 4.47113C5.86052 4.67241 5.75507 4.84805 5.59225 4.99805L3.29225 7.24613C4.082 8.58716 5.02368 9.7987 6.11728 10.8808C7.21086 11.9628 8.44868 12.9064 9.83075 13.7115L12.0654 11.4385C12.2282 11.2756 12.4208 11.1599 12.6432 11.0914C12.8657 11.0228 13.0935 11.0083 13.3269 11.0481L16.1038 11.6135C16.3563 11.6699 16.5624 11.792 16.722 11.9798C16.8816 12.1676 16.9615 12.391 16.9615 12.65V15.8923C16.9615 16.1923 16.8615 16.4423 16.6615 16.6423C16.4615 16.8423 16.2115 16.9423 15.9115 16.9423ZM2.57305 5.82693L4.35768 4.11923C4.38973 4.09358 4.41056 4.05832 4.42018 4.01345C4.42979 3.96857 4.42818 3.9269 4.41535 3.88845L3.98075 1.65383C3.96792 1.60254 3.94548 1.56408 3.91343 1.53845C3.88138 1.5128 3.83971 1.49998 3.78843 1.49998H1.64998C1.61151 1.49998 1.57945 1.5128 1.5538 1.53845C1.52817 1.56408 1.51535 1.59613 1.51535 1.6346C1.56662 2.31793 1.67848 3.01217 1.85093 3.7173C2.02336 4.42243 2.26407 5.12564 2.57305 5.82693ZM11.2346 14.4115C11.8974 14.7205 12.5887 14.9567 13.3086 15.1202C14.0285 15.2836 14.7012 15.3807 15.3269 15.4115C15.3653 15.4115 15.3974 15.3987 15.423 15.3731C15.4487 15.3474 15.4615 15.3153 15.4615 15.2769V13.1731C15.4615 13.1218 15.4487 13.0801 15.423 13.048C15.3974 13.016 15.3589 12.9935 15.3076 12.9807L13.2077 12.5538C13.1692 12.541 13.1355 12.5394 13.1067 12.549C13.0778 12.5586 13.0474 12.5795 13.0153 12.6115L11.2346 14.4115Z" fill="white"/>
  </symbol>

  <symbol viewBox="0 0 13 7" id="expand-more">
    <path d="M6.90039 7L0.900391 1.09976L2.01874 0L6.90039 4.80051L11.782 0L12.9004 1.09976L6.90039 7Z" fill="black"/>
  </symbol>

  <symbol viewBox="0 0 73 73" id="sanitizer">
    <mask id="mask0_347_1451" style="mask-type:alpha" maskUnits="userSpaceOnUse" x="0" y="0" width="73" height="73">
    <rect width="72.6665" height="72.6665" fill="#D9D9D9"/>
    </mask>
    <g mask="url(#mask0_347_1451)">
    <path d="M50.0772 25.2702C49.1239 25.2702 48.3124 24.939 47.6428 24.2764C46.9732 23.6139 46.6384 22.8093 46.6384 21.8629C46.6384 21.2193 46.9509 20.3559 47.5759 19.2729C48.2009 18.1899 49.0335 17.0448 50.0738 15.8375C51.1141 17.0448 51.9468 18.1899 52.5717 19.2729C53.1967 20.3559 53.5091 21.2193 53.5091 21.8629C53.5091 22.8093 53.1755 23.6139 52.5082 24.2764C51.8408 24.939 51.0305 25.2702 50.0772 25.2702ZM56.7822 43.204C55.2368 43.204 53.9265 42.6682 52.8512 41.5967C51.7759 40.5252 51.2383 39.2135 51.2383 37.6617C51.2383 36.3685 51.7973 34.7718 52.9152 32.8717C54.0332 30.9716 55.3181 29.1559 56.7698 27.4246C58.2216 29.1559 59.5064 30.9711 60.6244 32.8702C61.7424 34.7694 62.3013 36.3643 62.3013 37.655C62.3013 39.2038 61.7678 40.5159 60.7008 41.5911C59.6337 42.6663 58.3275 43.204 56.7822 43.204ZM29.811 51.9379H32.8388V45.8824H38.8943V42.8546H32.8388V36.7991H29.811V42.8546H23.7555V45.8824H29.811V51.9379ZM21.2894 61.9529C19.9096 61.9529 18.7529 61.4861 17.8193 60.5526C16.8857 59.619 16.4189 58.4554 16.4189 57.0618V36.3333C16.4189 32.4997 17.6921 29.1774 20.2386 26.3661C22.785 23.5549 25.9758 21.9319 29.811 21.4972V13.7414H24.4542V10.7136H39.3601C40.5143 10.7136 41.6005 10.8718 42.6189 11.1881C43.6372 11.5046 44.6083 11.9286 45.5322 12.4604L43.2962 14.6964C42.7037 14.4134 42.0794 14.1835 41.4234 14.0067C40.7674 13.8298 40.0796 13.7414 39.3601 13.7414H32.8388V21.4972C36.674 21.9319 39.8648 23.5549 42.4112 26.3661C44.9576 29.1774 46.2308 32.4997 46.2308 36.3333V57.0618C46.2308 58.4554 45.7641 59.619 44.8305 60.5526C43.8969 61.4861 42.7402 61.9529 41.3604 61.9529H21.2894ZM21.3099 58.9251H41.3398C41.8057 58.9251 42.2327 58.731 42.6208 58.3428C43.009 57.9546 43.2031 57.5277 43.2031 57.0618V36.3333C43.2031 33.0415 42.0463 30.2389 39.7328 27.9254C37.4193 25.6118 34.6166 24.4551 31.3249 24.4551C28.0331 24.4551 25.2305 25.6118 22.917 27.9254C20.6035 30.2389 19.4467 33.0415 19.4467 36.3333V57.0618C19.4467 57.5277 19.6408 57.9546 20.029 58.3428C20.4171 58.731 20.8441 58.9251 21.3099 58.9251ZM21.3099 58.9251H19.4467H43.2031H21.3099Z" fill="#FAB73B"/>
    </g>
  </symbol>

  <symbol viewBox="0 0 73 73" id="air-purifier-gen">
    <mask id="mask0_347_1485" style="mask-type:alpha" maskUnits="userSpaceOnUse" x="0" y="0" width="73" height="73">
    <rect width="73.333" height="73.333" fill="#D9D9D9"/>
    </mask>
    <g mask="url(#mask0_347_1485)">
    <path d="M12.2227 61.1108V19.861C12.2227 17.7456 12.967 15.9436 14.4556 14.4551C15.9441 12.9665 17.7461 12.2222 19.8615 12.2222H30.5559C32.6713 12.2222 34.4733 12.9665 35.9619 14.4551C37.4505 15.9436 38.1948 17.7456 38.1948 19.861V61.1108H12.2227ZM32.7888 47.3609H35.1392V29.0276H32.7888C32.2404 29.0276 31.7898 29.2039 31.4373 29.5565C31.0847 29.909 30.9084 30.3595 30.9084 30.908V45.4806C30.9084 46.029 31.0847 46.4795 31.4373 46.8321C31.7898 47.1846 32.2404 47.3609 32.7888 47.3609ZM15.2782 58.0553H35.1392V50.4164H32.7888C31.4216 50.4164 30.2572 49.9356 29.2955 48.9738C28.3338 48.0122 27.8529 46.8477 27.8529 45.4806V30.908C27.8529 29.5408 28.3338 28.3764 29.2955 27.4147C30.2572 26.453 31.4216 25.9721 32.7888 25.9721H35.1392V19.861C35.1392 18.6036 34.6897 17.5253 33.7907 16.6263C32.8916 15.7272 31.8134 15.2777 30.5559 15.2777H19.8615C18.6041 15.2777 17.5258 15.7272 16.6268 16.6263C15.7277 17.5253 15.2782 18.6036 15.2782 19.861V58.0553ZM51.028 39.9512C50.0565 39.9512 49.0909 39.8317 48.1312 39.5928C47.1714 39.3538 46.2175 39.0522 45.2695 38.6879L46.2391 35.8203C47.1009 36.1611 47.9402 36.4256 48.7569 36.6136C49.5737 36.8017 50.3562 36.8957 51.1044 36.8957C51.8722 36.8957 52.6302 36.784 53.3784 36.5607C54.1267 36.3374 54.8906 35.9633 55.6701 35.4384C56.7356 34.6902 57.8207 34.1731 58.9255 33.8871C60.0302 33.6012 61.0643 33.4582 62.028 33.4582C62.9877 33.4582 63.9661 33.5649 64.9631 33.7784C65.96 33.9919 66.9267 34.2808 67.8629 34.6451L66.8346 37.6302C65.7417 37.262 64.8652 36.9838 64.2051 36.7958C63.545 36.6077 62.8193 36.5137 62.028 36.5137C61.2602 36.5137 60.4483 36.6381 59.5924 36.8869C58.7365 37.1356 57.8227 37.5988 56.8512 38.2765C55.9385 38.9112 54.9934 39.3489 54.0161 39.5898C53.0386 39.8307 52.0426 39.9512 51.028 39.9512ZM51.1044 29.2098C50.1329 29.2098 49.1516 29.0903 48.1606 28.8513C47.1695 28.6124 46.2058 28.3108 45.2695 27.9464L46.2391 25.0202C47.2498 25.3845 48.1449 25.6646 48.9245 25.8604C49.704 26.0563 50.4306 26.1542 51.1044 26.1542C51.8722 26.1542 52.6205 26.0455 53.3491 25.8281C54.0777 25.6107 54.8514 25.2337 55.6701 24.697C56.7865 23.9488 57.8746 23.4317 58.9343 23.1457C59.9939 22.8597 61.0252 22.7167 62.028 22.7167C62.9877 22.7167 63.9475 22.8235 64.9073 23.037C65.867 23.2505 66.8523 23.5394 67.8629 23.9037L66.8346 26.8888C65.8239 26.548 64.9386 26.2767 64.1786 26.0749C63.4187 25.8732 62.7018 25.7724 62.028 25.7724C61.2093 25.7724 60.3876 25.8938 59.563 26.1366C58.7384 26.3795 57.8149 26.8653 56.7925 27.5939C56.0325 28.1384 55.1482 28.5439 54.1394 28.8102C53.1307 29.0766 52.119 29.2098 51.1044 29.2098ZM51.1044 50.6927C50.1329 50.6927 49.1546 50.5732 48.1694 50.3342C47.1841 50.0952 46.2175 49.7936 45.2695 49.4293L46.2391 46.503C47.1244 46.8164 47.9823 47.0837 48.8128 47.3051C49.6433 47.5264 50.4072 47.637 51.1044 47.637C51.8722 47.637 52.6205 47.5283 53.3491 47.3109C54.0777 47.0935 54.8514 46.7165 55.6701 46.1798C56.7239 45.4433 57.8345 44.9292 59.0019 44.6373C60.1692 44.3455 61.2034 44.1996 62.1044 44.1996C63.025 44.1996 63.9808 44.3093 64.9719 44.5286C65.963 44.748 66.9267 45.034 67.8629 45.3866L66.8934 48.3716C65.8827 48.0308 64.9748 47.7595 64.1698 47.5578C63.3648 47.356 62.6509 47.2552 62.028 47.2552C61.1975 47.2552 60.3347 47.3991 59.4396 47.687C58.5445 47.9749 57.6621 48.4382 56.7925 49.0767C56.0442 49.6095 55.1755 50.012 54.1864 50.2842C53.1973 50.5565 52.1699 50.6927 51.1044 50.6927Z" fill="#FAB73B"/>
    </g>
  </symbol>

  <symbol viewBox="0 0 73 73" id="cleaning-bucket">
    <mask id="mask0_347_1468" style="mask-type:alpha" maskUnits="userSpaceOnUse" x="0" y="0" width="73" height="73">
    <rect x="0.5" width="73" height="73" fill="#D9D9D9"/>
    </mask>
    <g mask="url(#mask0_347_1468)">
    <path d="M28.8329 66.9168C27.5702 66.9168 26.476 66.5162 25.5503 65.7151C24.6245 64.9139 24.0793 63.897 23.9148 62.6644L19.2178 27.3752H54.8404L50.1433 62.6644C49.978 63.897 49.4306 64.9139 48.501 65.7151C47.5715 66.5162 46.4869 66.9168 45.2474 66.9168H28.8329ZM28.7522 63.8752H45.2474C45.7154 63.8752 46.1248 63.7192 46.4757 63.4072C46.8267 63.0952 47.0412 62.7053 47.1192 62.2374L51.2956 30.4168H22.6279L26.8804 62.2374C26.9584 62.7053 27.1729 63.0952 27.5239 63.4072C27.8748 63.7192 28.2843 63.8752 28.7522 63.8752ZM36.993 47.146C39.1033 47.146 40.8994 46.4067 42.3812 44.9281C43.8631 43.4495 44.604 41.6541 44.604 39.5418V34.9793H41.5623V39.5418C41.5623 40.7936 41.1148 41.8669 40.2199 42.7619C39.3249 43.6569 38.2516 44.1043 36.9998 44.1043C35.7481 44.1043 34.6747 43.6569 33.7798 42.7619C32.8848 41.8669 32.4373 40.7936 32.4373 39.5418V34.9793H29.3956V39.5418C29.3956 41.6541 30.1343 43.4495 31.6115 44.9281C33.0887 46.4067 34.8826 47.146 36.993 47.146ZM46.1317 21.2334C45.2887 21.2334 44.5698 20.9383 43.9752 20.3482C43.3805 19.7581 43.0831 19.0415 43.0831 18.1985C43.0831 17.3555 43.3782 16.6367 43.9683 16.042C44.5584 15.4473 45.2749 15.15 46.1179 15.15C46.9609 15.15 47.6798 15.4451 48.2744 16.0351C48.8691 16.6252 49.1665 17.3418 49.1665 18.1848C49.1665 19.0278 48.8714 19.7466 48.2814 20.3413C47.6912 20.936 46.9747 21.2334 46.1317 21.2334ZM30.9165 18.1917C29.2553 18.1917 27.8261 17.5931 26.6289 16.3959C25.4317 15.1987 24.8331 13.7598 24.8331 12.0791C24.8331 10.3984 25.4317 8.96915 26.6289 7.79147C27.8261 6.61384 29.265 6.02502 30.9458 6.02502C32.6265 6.02502 34.0557 6.61308 35.2333 7.78919C36.411 8.9653 36.9998 10.405 36.9998 12.1084C36.9998 13.7696 36.4118 15.1987 35.2356 16.3959C34.0595 17.5931 32.6198 18.1917 30.9165 18.1917ZM45.2474 63.8752H26.9974H47.0022H45.2474Z" fill="#FAB73B"/>
    </g>
  </symbol>

  <symbol viewBox="0 0 68 68" id="avis-avatar">
    <mask id="mask0_677_3" style="mask-type:alpha" maskUnits="userSpaceOnUse" x="0" y="0" width="69" height="68">
    <rect x="0.5" width="68" height="68" fill="#D9D9D9"/>
    </mask>
    <g mask="url(#mask0_677_3)">
    <path d="M18.0558 49.5398C20.4641 47.807 23.0195 46.4367 25.7221 45.4287C28.4247 44.4207 31.3507 43.9167 34.5 43.9167C37.6493 43.9167 40.5753 44.4207 43.2779 45.4287C45.9805 46.4367 48.5359 47.807 50.9442 49.5398C52.8149 47.6037 54.3197 45.317 55.4585 42.6798C56.5973 40.0426 57.1667 37.1493 57.1667 34C57.1667 27.7194 54.959 22.3715 50.5438 17.9563C46.1285 13.541 40.7806 11.3333 34.5 11.3333C28.2194 11.3333 22.8715 13.541 18.4563 17.9563C14.041 22.3715 11.8333 27.7194 11.8333 34C11.8333 37.1493 12.4027 40.0426 13.5415 42.6798C14.6803 45.317 16.185 47.6037 18.0558 49.5398ZM34.5016 35.4167C32.114 35.4167 30.1001 34.5972 28.4601 32.9583C26.82 31.3193 26 29.3059 26 26.9183C26 24.5306 26.8195 22.5168 28.4584 20.8768C30.0974 19.2367 32.1107 18.4167 34.4984 18.4167C36.886 18.4167 38.8999 19.2362 40.5399 20.8751C42.18 22.5141 43 24.5274 43 26.915C43 29.3027 42.1805 31.3165 40.5415 32.9566C38.9026 34.5966 36.8893 35.4167 34.5016 35.4167ZM34.5 59.5C30.9438 59.5 27.6146 58.838 24.5125 57.514C21.4104 56.1899 18.7114 54.38 16.4157 52.0843C14.12 49.7886 12.3101 47.0896 10.986 43.9875C9.66201 40.8854 9 37.5562 9 34C9 30.4438 9.66201 27.1146 10.986 24.0125C12.3101 20.9104 14.12 18.2114 16.4157 15.9157C18.7114 13.62 21.4104 11.8101 24.5125 10.486C27.6146 9.16201 30.9438 8.5 34.5 8.5C38.0562 8.5 41.3854 9.16201 44.4875 10.486C47.5896 11.8101 50.2886 13.62 52.5843 15.9157C54.88 18.2114 56.6899 20.9104 58.014 24.0125C59.338 27.1146 60 30.4438 60 34C60 37.5562 59.338 40.8854 58.014 43.9875C56.6899 47.0896 54.88 49.7886 52.5843 52.0843C50.2886 54.38 47.5896 56.1899 44.4875 57.514C41.3854 58.838 38.0562 59.5 34.5 59.5ZM34.5 56.6667C37.1118 56.6667 39.6817 56.2099 42.2099 55.2963C44.7382 54.3828 46.9231 53.1323 48.7648 51.5448C46.9231 50.0665 44.7926 48.8977 42.3734 48.0386C39.9542 47.1795 37.3297 46.75 34.5 46.75C31.6703 46.75 29.0368 47.1705 26.5994 48.0114C24.162 48.8523 22.0406 50.0301 20.2352 51.5448C22.0769 53.1323 24.2618 54.3828 26.7901 55.2963C29.3183 56.2099 31.8882 56.6667 34.5 56.6667ZM34.5 32.5833C36.091 32.5833 37.4332 32.0366 38.5266 30.9433C39.62 29.8499 40.1667 28.5077 40.1667 26.9167C40.1667 25.3257 39.62 23.9835 38.5266 22.8901C37.4332 21.7967 36.091 21.25 34.5 21.25C32.909 21.25 31.5668 21.7967 30.4734 22.8901C29.38 23.9835 28.8333 25.3257 28.8333 26.9167C28.8333 28.5077 29.38 29.8499 30.4734 30.9433C31.5668 32.0366 32.909 32.5833 34.5 32.5833Z" fill="#FAB73B"/>
    </g>
  </symbol>

  <symbol viewBox="0 0 22 22" id="avis-star">
    <path id="Star 2" d="M11.5 0L14.0819 7.60081H22.4371L15.6776 12.2984L18.2595 19.8992L11.5 15.2016L4.74047 19.8992L7.32238 12.2984L0.56285 7.60081H8.91809L11.5 0Z" fill="#FAB73B"/>
  </symbol>

  <symbol viewBox="0 0 87 92" id="engagements-time">
    <g id="acute">
    <mask id="mask0_347_1389" style="mask-type:alpha" maskUnits="userSpaceOnUse" x="0" y="0" width="87" height="92">
    <rect id="Bounding box" x="0.5" width="86" height="91.2653" fill="#D9D9D9"/>
    </mask>
    <g mask="url(#mask0_347_1389)">
    <path id="acute_2" d="M53.5905 72.2518C46.5797 72.2518 40.6414 69.67 35.7758 64.5064C30.9101 59.3429 28.4772 53.0411 28.4772 45.6011C28.4772 38.2166 30.9101 31.9393 35.7758 26.769C40.6414 21.5988 46.5797 19.0137 53.5905 19.0137C60.5489 19.0137 66.4641 21.5988 71.336 26.769C76.208 31.9393 78.644 38.2166 78.644 45.6011C78.644 53.0411 76.208 59.3429 71.336 64.5064C66.4641 69.67 60.5489 72.2518 53.5905 72.2518ZM53.5606 68.449C59.5329 68.449 64.6092 66.2308 68.7898 61.7943C72.9704 57.3578 75.0606 51.9706 75.0606 45.6327C75.0606 39.2949 72.9704 33.9077 68.7898 29.4712C64.6092 25.0346 59.5329 22.8164 53.5606 22.8164C47.5884 22.8164 42.512 25.0346 38.3315 29.4712C34.1509 33.9077 32.0606 39.2949 32.0606 45.6327C32.0606 51.9706 34.1509 57.3578 38.3315 61.7943C42.512 66.2308 47.5884 68.449 53.5606 68.449ZM62.4018 57.8234L64.9584 55.1102L55.3523 44.916V31.5919H51.769V46.4445L62.4018 57.8234ZM11.9388 32.3232V28.5205H24.8939V32.3232H11.9388ZM8.35547 47.5341V43.7314H24.8939V47.5341H8.35547ZM11.9388 62.745V58.9422H24.8939V62.745H11.9388Z" fill="#FAB73B"/>
    </g>
    </g>
  </symbol>

  <symbol viewBox="0 0 43 43" id="facebook">
    <g id="facebook logo" clip-path="url(#clip0_766_2040)">
    <path id="Vector" d="M21.5 42.7651C33.098 42.7651 42.5 33.3631 42.5 21.7651C42.5 10.1672 33.098 0.765137 21.5 0.765137C9.90202 0.765137 0.5 10.1672 0.5 21.7651C0.5 33.3631 9.90202 42.7651 21.5 42.7651Z" fill="white"/>
    <path id="Vector_2" d="M29.3851 27.7481L30.2653 21.6403H24.7551V17.6773C24.7551 16.0078 25.5235 14.3768 27.9936 14.3768H30.5V9.17807C30.5 9.17807 28.2255 8.76514 26.0516 8.76514C21.5138 8.76514 18.5464 11.6883 18.5464 16.9851V21.6403H13.5V27.7481H18.5464V42.5097C19.5579 42.679 20.5945 42.7651 21.6507 42.7651C22.7069 42.7651 23.7436 42.676 24.7551 42.5097V27.7481H29.3851Z" fill="#031F3E"/>
    </g>
    <defs>
    <clipPath id="clip0_766_2040">
    <rect width="42" height="42" fill="white" transform="translate(0.5 0.765137)"/>
    </clipPath>
    </defs>
  </symbol>

  <symbol viewBox="0 0 43 43" id="instagram">
    <path d="M14.5017 21.7651C14.5017 17.8993 17.6348 14.7646 21.5008 14.7646C25.3668 14.7646 28.5017 17.8993 28.5017 21.7651C28.5017 25.631 25.3668 28.7657 21.5008 28.7657C17.6348 28.7657 14.5017 25.631 14.5017 21.7651ZM10.7172 21.7651C10.7172 27.7207 15.545 32.5484 21.5008 32.5484C27.4567 32.5484 32.2845 27.7207 32.2845 21.7651C32.2845 15.8095 27.4567 10.9819 21.5008 10.9819C15.545 10.9819 10.7172 15.8095 10.7172 21.7651ZM30.1913 10.5543C30.1908 11.9461 31.3186 13.0748 32.7104 13.0753C34.1022 13.0759 35.231 11.9481 35.2315 10.5563C35.2321 9.16459 34.1042 8.03589 32.7124 8.03534C31.3213 8.03598 30.1925 9.16323 30.1913 10.5543ZM13.0165 38.8586C10.969 38.7654 9.85613 38.4244 9.11656 38.1362C8.13607 37.7545 7.43649 37.2999 6.70096 36.5654C5.96543 35.8309 5.51013 35.1321 5.1301 34.1516C4.8418 33.4124 4.50074 32.2992 4.40767 30.2518C4.30586 28.0383 4.28553 27.3733 4.28553 21.7653C4.28553 16.1573 4.30754 15.4942 4.40767 13.2788C4.50091 11.2314 4.84449 10.1204 5.1301 9.379C5.51181 8.39855 5.96643 7.699 6.70096 6.9635C7.43549 6.22799 8.13439 5.77271 9.11656 5.3927C9.85579 5.10441 10.969 4.76337 13.0165 4.6703C15.2302 4.56849 15.8951 4.54816 21.5008 4.54816C27.1066 4.54816 27.7722 4.57017 29.9877 4.6703C32.0352 4.76354 33.1462 5.1071 33.8876 5.3927C34.8681 5.77271 35.5677 6.229 36.3032 6.9635C37.0388 7.69799 37.4924 8.39855 37.8741 9.379C38.1624 10.1182 38.5035 11.2314 38.5965 13.2788C38.6983 15.4942 38.7187 16.1573 38.7187 21.7653C38.7187 27.3733 38.6983 28.0364 38.5965 30.2518C38.5033 32.2992 38.1606 33.4121 37.8741 34.1516C37.4924 35.1321 37.0378 35.8316 36.3032 36.5654C35.5687 37.2993 34.8681 37.7545 33.8876 38.1362C33.1484 38.4245 32.0352 38.7656 29.9877 38.8586C27.774 38.9604 27.1091 38.9808 21.5008 38.9808C15.8926 38.9808 15.2295 38.9604 13.0165 38.8586ZM12.8426 0.892313C10.6069 0.994121 9.07926 1.3486 7.74512 1.86772C6.36343 2.40381 5.19377 3.12302 4.02495 4.28994C2.85613 5.45687 2.13874 6.62834 1.60263 8.00997C1.08349 9.3449 0.728993 10.8717 0.627181 13.1073C0.523689 15.3464 0.5 16.0622 0.5 21.7651C0.5 27.4681 0.523689 28.1839 0.627181 30.423C0.728993 32.6588 1.08349 34.1854 1.60263 35.5203C2.13874 36.9011 2.85629 38.0739 4.02495 39.2403C5.1936 40.4068 6.36343 41.125 7.74512 41.6626C9.08178 42.1817 10.6069 42.5362 12.8426 42.638C15.083 42.7398 15.7977 42.7651 21.5008 42.7651C27.204 42.7651 27.9199 42.7414 30.1591 42.638C32.3949 42.5362 33.9216 42.1817 35.2566 41.6626C36.6374 41.125 37.8079 40.4073 38.9767 39.2403C40.1456 38.0734 40.8614 36.9011 41.3991 35.5203C41.9182 34.1854 42.2744 32.6586 42.3745 30.423C42.4763 28.1822 42.5 27.4681 42.5 21.7651C42.5 16.0622 42.4763 15.3464 42.3745 13.1073C42.2727 10.8715 41.9182 9.34406 41.3991 8.00997C40.8614 6.62918 40.1437 5.45872 38.9767 4.28994C37.8098 3.12117 36.6374 2.40381 35.2582 1.86772C33.9216 1.3486 32.3947 0.992441 30.1607 0.892313C27.9216 0.790505 27.2057 0.765137 21.5025 0.765137C15.7994 0.765137 15.083 0.788825 12.8426 0.892313Z" fill="white"/>
  </symbol>

  <symbol viewBox="0 0 43 51" id="twitter">
    <g clip-path="url(#clip0_766_2043)">
    <path d="M49.5 5.49748C47.6977 6.30082 45.7619 6.84389 43.7265 7.088C45.8038 5.83854 47.3951 3.8586 48.1465 1.50214C46.1733 2.67937 44.0138 3.50813 41.7618 3.95244C39.9291 1.99022 37.3157 0.765137 34.4244 0.765137C28.8748 0.765137 24.374 5.28426 24.374 10.862C24.374 11.6523 24.4626 12.4234 24.6329 13.1636C16.2787 12.7419 8.87206 8.72218 3.91442 2.61423C3.04875 4.10596 2.55325 5.84037 2.55325 7.6909C2.55325 11.1935 4.32806 14.2838 7.02485 16.0941C5.42839 16.0444 3.86697 15.6115 2.47112 14.8317V14.9593C2.47112 19.8518 5.93549 23.9313 10.5342 24.8591C9.68946 25.0916 8.8029 25.2131 7.88572 25.2131C7.23724 25.2131 6.6081 25.1515 5.99349 25.0353C7.27267 29.0454 10.985 31.9643 15.3824 32.0468C11.9421 34.7557 7.60728 36.3705 2.89915 36.3705C2.08823 36.3705 1.28679 36.3219 0.5 36.2266C4.94916 39.0922 10.2318 40.7651 15.9086 40.7651C34.3971 40.7651 44.5085 25.3797 44.5085 12.0372C44.5085 11.5992 44.4989 11.1644 44.4779 10.7312C46.4479 9.29987 48.1485 7.52764 49.5 5.49748Z" fill="white"/>
    </g>
    <defs>
    <clipPath id="clip0_766_2043">
    <rect width="51" height="42" fill="white" transform="translate(0.5 0.765137)"/>
    </clipPath>
    </defs>
  </symbol>

  <symbol viewBox="0 0 35 35" id="mobile-menu">
    <mask id="mask0_92_305" style="mask-type:alpha" maskUnits="userSpaceOnUse" x="0" y="0" width="35" height="35">
    <rect width="35" height="35" fill="#D9D9D9"/>
    </mask>
    <g mask="url(#mask0_92_305)">
    <path d="M4.375 26.25V23.3333H30.625V26.25H4.375ZM4.375 18.9583V16.0417H30.625V18.9583H4.375ZM4.375 11.6667V8.75H30.625V11.6667H4.375Z" fill="white"/>
    </g>
  </symbol>

</svg>