<?xml version="1.0" encoding="UTF-8"?>
<svg xmlns="http://www.w3.org/2000/svg" xmlns:xlink="http://www.w3.org/1999/xlink" width="0" height="0">

  <symbol viewBox="0 0 17 17" id="mobile-phone">
    <path d="M15.9115 16.9423C13.9666 16.9423 12.0407 16.4807 10.1336 15.5576C8.22657 14.6346 6.52402 13.424 5.02595 11.9259C3.52787 10.4278 2.31569 8.72688 1.38943 6.82305C0.463142 4.91922 0 2.99487 0 1.05C0 0.75 0.1 0.5 0.3 0.3C0.5 0.1 0.75 0 1.05 0H4.31148C4.57046 0 4.79643 0.079809 4.98938 0.239426C5.18231 0.399042 5.30186 0.605134 5.34802 0.857701L5.9211 3.79998C5.96083 4.04613 5.95667 4.26984 5.9086 4.47113C5.86052 4.67241 5.75507 4.84805 5.59225 4.99805L3.29225 7.24613C4.082 8.58716 5.02368 9.7987 6.11728 10.8808C7.21086 11.9628 8.44868 12.9064 9.83075 13.7115L12.0654 11.4385C12.2282 11.2756 12.4208 11.1599 12.6432 11.0914C12.8657 11.0228 13.0935 11.0083 13.3269 11.0481L16.1038 11.6135C16.3563 11.6699 16.5624 11.792 16.722 11.9798C16.8816 12.1676 16.9615 12.391 16.9615 12.65V15.8923C16.9615 16.1923 16.8615 16.4423 16.6615 16.6423C16.4615 16.8423 16.2115 16.9423 15.9115 16.9423ZM2.57305 5.82693L4.35768 4.11923C4.38973 4.09358 4.41056 4.05832 4.42018 4.01345C4.42979 3.96857 4.42818 3.9269 4.41535 3.88845L3.98075 1.65383C3.96792 1.60254 3.94548 1.56408 3.91343 1.53845C3.88138 1.5128 3.83971 1.49998 3.78843 1.49998H1.64998C1.61151 1.49998 1.57945 1.5128 1.5538 1.53845C1.52817 1.56408 1.51535 1.59613 1.51535 1.6346C1.56662 2.31793 1.67848 3.01217 1.85093 3.7173C2.02336 4.42243 2.26407 5.12564 2.57305 5.82693ZM11.2346 14.4115C11.8974 14.7205 12.5887 14.9567 13.3086 15.1202C14.0285 15.2836 14.7012 15.3807 15.3269 15.4115C15.3653 15.4115 15.3974 15.3987 15.423 15.3731C15.4487 15.3474 15.4615 15.3153 15.4615 15.2769V13.1731C15.4615 13.1218 15.4487 13.0801 15.423 13.048C15.3974 13.016 15.3589 12.9935 15.3076 12.9807L13.2077 12.5538C13.1692 12.541 13.1355 12.5394 13.1067 12.549C13.0778 12.5586 13.0474 12.5795 13.0153 12.6115L11.2346 14.4115Z" fill="white"/>
  </symbol>

  <symbol viewBox="0 0 13 7" id="expand-more">
    <path d="M6.90039 7L0.900391 1.09976L2.01874 0L6.90039 4.80051L11.782 0L12.9004 1.09976L6.90039 7Z" fill="black"/>
  </symbol>

  <symbol viewBox="0 0 73 73" id="sanitizer">
    <mask id="mask0_347_1451" style="mask-type:alpha" maskUnits="userSpaceOnUse" x="0" y="0" width="73" height="73">
    <rect width="72.6665" height="72.6665" fill="#D9D9D9"/>
    </mask>
    <g mask="url(#mask0_347_1451)">
    <path d="M50.0772 25.2702C49.1239 25.2702 48.3124 24.939 47.6428 24.2764C46.9732 23.6139 46.6384 22.8093 46.6384 21.8629C46.6384 21.2193 46.9509 20.3559 47.5759 19.2729C48.2009 18.1899 49.0335 17.0448 50.0738 15.8375C51.1141 17.0448 51.9468 18.1899 52.5717 19.2729C53.1967 20.3559 53.5091 21.2193 53.5091 21.8629C53.5091 22.8093 53.1755 23.6139 52.5082 24.2764C51.8408 24.939 51.0305 25.2702 50.0772 25.2702ZM56.7822 43.204C55.2368 43.204 53.9265 42.6682 52.8512 41.5967C51.7759 40.5252 51.2383 39.2135 51.2383 37.6617C51.2383 36.3685 51.7973 34.7718 52.9152 32.8717C54.0332 30.9716 55.3181 29.1559 56.7698 27.4246C58.2216 29.1559 59.5064 30.9711 60.6244 32.8702C61.7424 34.7694 62.3013 36.3643 62.3013 37.655C62.3013 39.2038 61.7678 40.5159 60.7008 41.5911C59.6337 42.6663 58.3275 43.204 56.7822 43.204ZM29.811 51.9379H32.8388V45.8824H38.8943V42.8546H32.8388V36.7991H29.811V42.8546H23.7555V45.8824H29.811V51.9379ZM21.2894 61.9529C19.9096 61.9529 18.7529 61.4861 17.8193 60.5526C16.8857 59.619 16.4189 58.4554 16.4189 57.0618V36.3333C16.4189 32.4997 17.6921 29.1774 20.2386 26.3661C22.785 23.5549 25.9758 21.9319 29.811 21.4972V13.7414H24.4542V10.7136H39.3601C40.5143 10.7136 41.6005 10.8718 42.6189 11.1881C43.6372 11.5046 44.6083 11.9286 45.5322 12.4604L43.2962 14.6964C42.7037 14.4134 42.0794 14.1835 41.4234 14.0067C40.7674 13.8298 40.0796 13.7414 39.3601 13.7414H32.8388V21.4972C36.674 21.9319 39.8648 23.5549 42.4112 26.3661C44.9576 29.1774 46.2308 32.4997 46.2308 36.3333V57.0618C46.2308 58.4554 45.7641 59.619 44.8305 60.5526C43.8969 61.4861 42.7402 61.9529 41.3604 61.9529H21.2894ZM21.3099 58.9251H41.3398C41.8057 58.9251 42.2327 58.731 42.6208 58.3428C43.009 57.9546 43.2031 57.5277 43.2031 57.0618V36.3333C43.2031 33.0415 42.0463 30.2389 39.7328 27.9254C37.4193 25.6118 34.6166 24.4551 31.3249 24.4551C28.0331 24.4551 25.2305 25.6118 22.917 27.9254C20.6035 30.2389 19.4467 33.0415 19.4467 36.3333V57.0618C19.4467 57.5277 19.6408 57.9546 20.029 58.3428C20.4171 58.731 20.8441 58.9251 21.3099 58.9251ZM21.3099 58.9251H19.4467H43.2031H21.3099Z" fill="#FAB73B"/>
    </g>
  </symbol>

  <symbol viewBox="0 0 73 73" id="air-purifier-gen">
    <mask id="mask0_347_1485" style="mask-type:alpha" maskUnits="userSpaceOnUse" x="0" y="0" width="73" height="73">
    <rect width="73.333" height="73.333" fill="#D9D9D9"/>
    </mask>
    <g mask="url(#mask0_347_1485)">
    <path d="M12.2227 61.1108V19.861C12.2227 17.7456 12.967 15.9436 14.4556 14.4551C15.9441 12.9665 17.7461 12.2222 19.8615 12.2222H30.5559C32.6713 12.2222 34.4733 12.9665 35.9619 14.4551C37.4505 15.9436 38.1948 17.7456 38.1948 19.861V61.1108H12.2227ZM32.7888 47.3609H35.1392V29.0276H32.7888C32.2404 29.0276 31.7898 29.2039 31.4373 29.5565C31.0847 29.909 30.9084 30.3595 30.9084 30.908V45.4806C30.9084 46.029 31.0847 46.4795 31.4373 46.8321C31.7898 47.1846 32.2404 47.3609 32.7888 47.3609ZM15.2782 58.0553H35.1392V50.4164H32.7888C31.4216 50.4164 30.2572 49.9356 29.2955 48.9738C28.3338 48.0122 27.8529 46.8477 27.8529 45.4806V30.908C27.8529 29.5408 28.3338 28.3764 29.2955 27.4147C30.2572 26.453 31.4216 25.9721 32.7888 25.9721H35.1392V19.861C35.1392 18.6036 34.6897 17.5253 33.7907 16.6263C32.8916 15.7272 31.8134 15.2777 30.5559 15.2777H19.8615C18.6041 15.2777 17.5258 15.7272 16.6268 16.6263C15.7277 17.5253 15.2782 18.6036 15.2782 19.861V58.0553ZM51.028 39.9512C50.0565 39.9512 49.0909 39.8317 48.1312 39.5928C47.1714 39.3538 46.2175 39.0522 45.2695 38.6879L46.2391 35.8203C47.1009 36.1611 47.9402 36.4256 48.7569 36.6136C49.5737 36.8017 50.3562 36.8957 51.1044 36.8957C51.8722 36.8957 52.6302 36.784 53.3784 36.5607C54.1267 36.3374 54.8906 35.9633 55.6701 35.4384C56.7356 34.6902 57.8207 34.1731 58.9255 33.8871C60.0302 33.6012 61.0643 33.4582 62.028 33.4582C62.9877 33.4582 63.9661 33.5649 64.9631 33.7784C65.96 33.9919 66.9267 34.2808 67.8629 34.6451L66.8346 37.6302C65.7417 37.262 64.8652 36.9838 64.2051 36.7958C63.545 36.6077 62.8193 36.5137 62.028 36.5137C61.2602 36.5137 60.4483 36.6381 59.5924 36.8869C58.7365 37.1356 57.8227 37.5988 56.8512 38.2765C55.9385 38.9112 54.9934 39.3489 54.0161 39.5898C53.0386 39.8307 52.0426 39.9512 51.028 39.9512ZM51.1044 29.2098C50.1329 29.2098 49.1516 29.0903 48.1606 28.8513C47.1695 28.6124 46.2058 28.3108 45.2695 27.9464L46.2391 25.0202C47.2498 25.3845 48.1449 25.6646 48.9245 25.8604C49.704 26.0563 50.4306 26.1542 51.1044 26.1542C51.8722 26.1542 52.6205 26.0455 53.3491 25.8281C54.0777 25.6107 54.8514 25.2337 55.6701 24.697C56.7865 23.9488 57.8746 23.4317 58.9343 23.1457C59.9939 22.8597 61.0252 22.7167 62.028 22.7167C62.9877 22.7167 63.9475 22.8235 64.9073 23.037C65.867 23.2505 66.8523 23.5394 67.8629 23.9037L66.8346 26.8888C65.8239 26.548 64.9386 26.2767 64.1786 26.0749C63.4187 25.8732 62.7018 25.7724 62.028 25.7724C61.2093 25.7724 60.3876 25.8938 59.563 26.1366C58.7384 26.3795 57.8149 26.8653 56.7925 27.5939C56.0325 28.1384 55.1482 28.5439 54.1394 28.8102C53.1307 29.0766 52.119 29.2098 51.1044 29.2098ZM51.1044 50.6927C50.1329 50.6927 49.1546 50.5732 48.1694 50.3342C47.1841 50.0952 46.2175 49.7936 45.2695 49.4293L46.2391 46.503C47.1244 46.8164 47.9823 47.0837 48.8128 47.3051C49.6433 47.5264 50.4072 47.637 51.1044 47.637C51.8722 47.637 52.6205 47.5283 53.3491 47.3109C54.0777 47.0935 54.8514 46.7165 55.6701 46.1798C56.7239 45.4433 57.8345 44.9292 59.0019 44.6373C60.1692 44.3455 61.2034 44.1996 62.1044 44.1996C63.025 44.1996 63.9808 44.3093 64.9719 44.5286C65.963 44.748 66.9267 45.034 67.8629 45.3866L66.8934 48.3716C65.8827 48.0308 64.9748 47.7595 64.1698 47.5578C63.3648 47.356 62.6509 47.2552 62.028 47.2552C61.1975 47.2552 60.3347 47.3991 59.4396 47.687C58.5445 47.9749 57.6621 48.4382 56.7925 49.0767C56.0442 49.6095 55.1755 50.012 54.1864 50.2842C53.1973 50.5565 52.1699 50.6927 51.1044 50.6927Z" fill="#FAB73B"/>
    </g>
  </symbol>

  <symbol viewBox="0 0 73 73" id="all">
    <mask id="mask0_1025_2088" style="mask-type:alpha" maskUnits="userSpaceOnUse" x="0" y="0" width="73" height="73">
      <rect width="72.6665" height="72.6665" fill="#D9D9D9"/>
    </mask>
    <g mask="url(#mask0_1025_2088)">
      <path d="M16.6525 51.472C12.432 51.472 8.85375 50.0045 5.91772 47.0695C2.98169 44.1345 1.51367 40.5575 1.51367 36.3384C1.51367 32.1193 2.98169 28.5405 5.91772 25.6021C8.85375 22.6636 12.432 21.1943 16.6525 21.1943C18.3145 21.1943 19.909 21.4932 21.4363 22.091C22.9635 22.6888 24.3501 23.535 25.5961 24.6297L32.0243 30.1379L29.6952 32.1293L23.6047 26.8423C22.6421 26.0271 21.5591 25.3867 20.3557 24.9208C19.1524 24.455 17.9165 24.2221 16.6482 24.2221C13.3044 24.2221 10.4507 25.4053 8.08704 27.7717C5.72336 30.1381 4.54152 32.995 4.54152 36.3426C4.54152 39.6901 5.72336 42.544 8.08704 44.9041C10.4507 47.2642 13.3044 48.4443 16.6482 48.4443C17.9165 48.4443 19.1524 48.2114 20.3557 47.7455C21.5591 47.2797 22.6421 46.6392 23.6047 45.8241L47.07 24.6297C48.2772 23.4962 49.6507 22.6403 51.1905 22.0619C52.7302 21.4835 54.3379 21.1943 56.0135 21.1943C60.2341 21.1943 63.8123 22.6618 66.7484 25.5969C69.6844 28.5318 71.1524 32.1089 71.1524 36.328C71.1524 40.5471 69.6844 44.1258 66.7484 47.0643C63.8123 50.0028 60.2341 51.472 56.0135 51.472C54.3405 51.472 52.7529 51.1634 51.2506 50.5462C49.7484 49.9291 48.3549 49.0925 47.07 48.0367L40.7583 42.5285L42.9709 40.4789L49.0613 45.8241C50.024 46.6858 51.107 47.338 52.3104 47.7805C53.5137 48.223 54.7495 48.4443 56.0179 48.4443C59.3616 48.4443 62.2154 47.2611 64.579 44.8947C66.9428 42.5283 68.1246 39.6714 68.1246 36.3238C68.1246 32.9763 66.9428 30.1224 64.579 27.7623C62.2154 25.4022 59.3616 24.2221 56.0179 24.2221C54.7495 24.2221 53.5137 24.455 52.3104 24.9208C51.107 25.3867 50.024 26.0271 49.0613 26.8423L25.5961 48.0367C24.3889 49.1702 23.0154 50.0261 21.4756 50.6045C19.9358 51.1829 18.3281 51.472 16.6525 51.472Z" fill="#FAB73B"/>
    </g>
  </symbol>

  <symbol viewBox="0 0 73 73" id="face-excited">
    <mask id="mask0_1028_2070" style="mask-type:alpha" maskUnits="userSpaceOnUse" x="0" y="0" width="73" height="73">
      <rect width="72.6665" height="72.6665" fill="#D9D9D9"/>
    </mask>
    <g mask="url(#mask0_1028_2070)">
      <path d="M25.1535 37.2648V42.3887C25.1535 45.4864 26.2423 48.1241 28.4199 50.3017C30.5976 52.4794 33.2353 53.5682 36.3329 53.5682C39.4306 53.5682 42.0683 52.4794 44.246 50.3017C46.4236 48.1241 47.5124 45.4864 47.5124 42.3887V37.2648H25.1535ZM36.3329 50.8898C33.9806 50.8898 31.9757 50.061 30.3182 48.4035C28.6607 46.746 27.8319 44.7411 27.8319 42.3887V39.9432H44.834V42.3887C44.834 44.7411 44.0052 46.746 42.3477 48.4035C40.6902 50.061 38.6853 50.8898 36.3329 50.8898ZM25.7357 22.126C24.1675 22.126 22.7458 22.6743 21.4707 23.7708C20.1955 24.8674 19.2552 26.3745 18.6496 28.2921L21.2349 28.9443C21.6541 27.7099 22.2654 26.721 23.069 25.9776C23.8725 25.2343 24.7614 24.8432 25.7357 24.8043C26.7101 24.8432 27.599 25.2343 28.4025 25.9776C29.2061 26.721 29.8174 27.7099 30.2366 28.9443L32.8219 28.2921C32.2163 26.3745 31.276 24.8674 30.0008 23.7708C28.7257 22.6743 27.304 22.126 25.7357 22.126ZM46.9301 22.126C45.3619 22.126 43.9402 22.6743 42.6651 23.7708C41.3899 24.8674 40.4496 26.3745 39.844 28.2921L42.4293 28.9443C42.8485 27.6711 43.4502 26.6628 44.2343 25.9194C45.0184 25.176 45.917 24.8043 46.9301 24.8043C47.9433 24.8043 48.8419 25.176 49.626 25.9194C50.4101 26.6628 51.0118 27.6711 51.431 28.9443L54.0163 28.2921C53.4107 26.3745 52.4704 24.8674 51.1952 23.7708C49.9201 22.6743 48.4984 22.126 46.9301 22.126ZM36.3431 63.5831C32.5749 63.5831 29.0321 62.8681 25.7149 61.438C22.3976 60.0079 19.512 58.0671 17.0581 55.6155C14.6042 53.1639 12.6616 50.281 11.2302 46.9669C9.79872 43.6527 9.08301 40.1115 9.08301 36.3433C9.08301 32.5751 9.79804 29.0324 11.2281 25.7151C12.6582 22.3978 14.5991 19.5122 17.0507 17.0583C19.5022 14.6045 22.3851 12.6618 25.6993 11.2304C29.0135 9.79897 32.5546 9.08325 36.3228 9.08325C40.091 9.08325 43.6338 9.79828 46.951 11.2284C50.2683 12.6585 53.1539 14.5993 55.6078 17.0509C58.0617 19.5025 60.0043 22.3854 61.4357 25.6995C62.8672 29.0137 63.5829 32.5549 63.5829 36.323C63.5829 40.0913 62.8679 43.634 61.4378 46.9513C60.0077 50.2686 58.0668 53.1541 55.6152 55.6081C53.1636 58.0619 50.2808 60.0046 46.9666 61.436C43.6524 62.8674 40.1113 63.5831 36.3431 63.5831ZM36.3329 60.5554C43.095 60.5554 48.8225 58.2088 53.5155 53.5158C58.2086 48.8227 60.5551 43.0952 60.5551 36.3332C60.5551 29.5712 58.2086 23.8436 53.5155 19.1506C48.8225 14.4575 43.095 12.111 36.3329 12.111C29.5709 12.111 23.8434 14.4575 19.1503 19.1506C14.4573 23.8436 12.1108 29.5712 12.1108 36.3332C12.1108 43.0952 14.4573 48.8227 19.1503 53.5158C23.8434 58.2088 29.5709 60.5554 36.3329 60.5554Z" fill="#FAB73B"/>
    </g>
  </symbol>

  <symbol viewBox="0 0 73 73" id="face-satisfied">
    <mask id="mask0_1028_2124" style="mask-type:alpha" maskUnits="userSpaceOnUse" x="0" y="0" width="73" height="73">
      <rect width="72.6665" height="72.6665" fill="#D9D9D9"/>
    </mask>
    <g mask="url(#mask0_1028_2124)">
      <path d="M46.3616 32.1409C47.3035 32.1409 48.0995 31.8112 48.7498 31.1519C49.3999 30.4926 49.725 29.6919 49.725 28.7501C49.725 27.8082 49.3954 27.0121 48.7361 26.3619C48.0767 25.7117 47.2761 25.3867 46.3342 25.3867C45.3923 25.3867 44.5963 25.7163 43.9461 26.3756C43.2958 27.035 42.9707 27.8356 42.9707 28.7775C42.9707 29.7194 43.3004 30.5154 43.9598 31.1656C44.6191 31.8158 45.4197 32.1409 46.3616 32.1409ZM26.3317 32.1409C27.2736 32.1409 28.0696 31.8112 28.7198 31.1519C29.3701 30.4926 29.6952 29.6919 29.6952 28.7501C29.6952 27.8082 29.3655 27.0121 28.7061 26.3619C28.0468 25.7117 27.2462 25.3867 26.3043 25.3867C25.3624 25.3867 24.5663 25.7163 23.9161 26.3756C23.266 27.035 22.9409 27.8356 22.9409 28.7775C22.9409 29.7194 23.2705 30.5154 23.9298 31.1656C24.5892 31.8158 25.3898 32.1409 26.3317 32.1409ZM36.3329 51.1227C39.221 51.1227 41.881 50.326 44.3129 48.7325C46.7448 47.1391 48.5722 45.0245 49.7949 42.3887H46.7788C45.6686 44.2559 44.1925 45.7319 42.3506 46.8168C40.5087 47.9018 38.5028 48.4443 36.3329 48.4443C34.163 48.4443 32.1571 47.9018 30.3153 46.8168C28.4734 45.7319 26.9973 44.2559 25.8871 42.3887H22.871C24.0937 45.0245 25.9211 47.1391 28.353 48.7325C30.7849 50.326 33.4449 51.1227 36.3329 51.1227ZM36.3431 63.5831C32.5749 63.5831 29.0321 62.8681 25.7149 61.438C22.3976 60.0079 19.512 58.0671 17.0581 55.6155C14.6042 53.1639 12.6616 50.281 11.2302 46.9669C9.79872 43.6527 9.08301 40.1115 9.08301 36.3433C9.08301 32.5751 9.79804 29.0324 11.2281 25.7151C12.6582 22.3978 14.5991 19.5122 17.0507 17.0583C19.5022 14.6045 22.3851 12.6618 25.6993 11.2304C29.0135 9.79897 32.5546 9.08325 36.3228 9.08325C40.091 9.08325 43.6338 9.79828 46.951 11.2284C50.2683 12.6585 53.1539 14.5993 55.6078 17.0509C58.0617 19.5025 60.0043 22.3854 61.4357 25.6995C62.8672 29.0137 63.5829 32.5549 63.5829 36.323C63.5829 40.0913 62.8679 43.634 61.4378 46.9513C60.0077 50.2686 58.0668 53.1541 55.6152 55.6081C53.1636 58.0619 50.2808 60.0046 46.9666 61.436C43.6524 62.8674 40.1113 63.5831 36.3431 63.5831ZM36.3329 60.5554C43.095 60.5554 48.8225 58.2088 53.5155 53.5158C58.2086 48.8227 60.5551 43.0952 60.5551 36.3332C60.5551 29.5712 58.2086 23.8436 53.5155 19.1506C48.8225 14.4575 43.095 12.111 36.3329 12.111C29.5709 12.111 23.8434 14.4575 19.1503 19.1506C14.4573 23.8436 12.1108 29.5712 12.1108 36.3332C12.1108 43.0952 14.4573 48.8227 19.1503 53.5158C23.8434 58.2088 29.5709 60.5554 36.3329 60.5554Z" fill="#FAB73B"/>
    </g>
  </symbol>

  <symbol viewBox="0 0 73 73" id="star-outlined">
    <mask id="mask0_1028_2058" style="mask-type:alpha" maskUnits="userSpaceOnUse" x="0" y="0" width="73" height="73">
      <rect width="72.6665" height="72.6665" fill="#D9D9D9"/>
    </mask>
    <g mask="url(#mask0_1028_2058)">
      <path d="M26.7957 53.97L36.3332 48.2173L45.8707 54.0457L43.3727 43.1458L51.7748 35.8791L40.7234 34.8951L36.3332 24.6007L31.9429 34.8194L20.8915 35.8034L29.2936 43.1458L26.7957 53.97ZM22.1784 60.3226L25.9339 44.2346L13.4502 33.4219L29.8933 31.9954L36.3332 16.8274L42.773 31.9954L59.2162 33.4219L46.7324 44.2346L50.488 60.3226L36.3332 51.7807L22.1784 60.3226Z" fill="#FAB73B"/>
    </g>
  </symbol>

  <symbol viewBox="0 0 73 73" id="cleaning-bucket">
    <mask id="mask0_347_1468" style="mask-type:alpha" maskUnits="userSpaceOnUse" x="0" y="0" width="73" height="73">
    <rect x="0.5" width="73" height="73" fill="#D9D9D9"/>
    </mask>
    <g mask="url(#mask0_347_1468)">
    <path d="M28.8329 66.9168C27.5702 66.9168 26.476 66.5162 25.5503 65.7151C24.6245 64.9139 24.0793 63.897 23.9148 62.6644L19.2178 27.3752H54.8404L50.1433 62.6644C49.978 63.897 49.4306 64.9139 48.501 65.7151C47.5715 66.5162 46.4869 66.9168 45.2474 66.9168H28.8329ZM28.7522 63.8752H45.2474C45.7154 63.8752 46.1248 63.7192 46.4757 63.4072C46.8267 63.0952 47.0412 62.7053 47.1192 62.2374L51.2956 30.4168H22.6279L26.8804 62.2374C26.9584 62.7053 27.1729 63.0952 27.5239 63.4072C27.8748 63.7192 28.2843 63.8752 28.7522 63.8752ZM36.993 47.146C39.1033 47.146 40.8994 46.4067 42.3812 44.9281C43.8631 43.4495 44.604 41.6541 44.604 39.5418V34.9793H41.5623V39.5418C41.5623 40.7936 41.1148 41.8669 40.2199 42.7619C39.3249 43.6569 38.2516 44.1043 36.9998 44.1043C35.7481 44.1043 34.6747 43.6569 33.7798 42.7619C32.8848 41.8669 32.4373 40.7936 32.4373 39.5418V34.9793H29.3956V39.5418C29.3956 41.6541 30.1343 43.4495 31.6115 44.9281C33.0887 46.4067 34.8826 47.146 36.993 47.146ZM46.1317 21.2334C45.2887 21.2334 44.5698 20.9383 43.9752 20.3482C43.3805 19.7581 43.0831 19.0415 43.0831 18.1985C43.0831 17.3555 43.3782 16.6367 43.9683 16.042C44.5584 15.4473 45.2749 15.15 46.1179 15.15C46.9609 15.15 47.6798 15.4451 48.2744 16.0351C48.8691 16.6252 49.1665 17.3418 49.1665 18.1848C49.1665 19.0278 48.8714 19.7466 48.2814 20.3413C47.6912 20.936 46.9747 21.2334 46.1317 21.2334ZM30.9165 18.1917C29.2553 18.1917 27.8261 17.5931 26.6289 16.3959C25.4317 15.1987 24.8331 13.7598 24.8331 12.0791C24.8331 10.3984 25.4317 8.96915 26.6289 7.79147C27.8261 6.61384 29.265 6.02502 30.9458 6.02502C32.6265 6.02502 34.0557 6.61308 35.2333 7.78919C36.411 8.9653 36.9998 10.405 36.9998 12.1084C36.9998 13.7696 36.4118 15.1987 35.2356 16.3959C34.0595 17.5931 32.6198 18.1917 30.9165 18.1917ZM45.2474 63.8752H26.9974H47.0022H45.2474Z" fill="#FAB73B"/>
    </g>
  </symbol>

  <symbol viewBox="0 0 68 68" id="avis-avatar">
    <mask id="mask0_677_3" style="mask-type:alpha" maskUnits="userSpaceOnUse" x="0" y="0" width="69" height="68">
    <rect x="0.5" width="68" height="68" fill="#D9D9D9"/>
    </mask>
    <g mask="url(#mask0_677_3)">
    <path d="M18.0558 49.5398C20.4641 47.807 23.0195 46.4367 25.7221 45.4287C28.4247 44.4207 31.3507 43.9167 34.5 43.9167C37.6493 43.9167 40.5753 44.4207 43.2779 45.4287C45.9805 46.4367 48.5359 47.807 50.9442 49.5398C52.8149 47.6037 54.3197 45.317 55.4585 42.6798C56.5973 40.0426 57.1667 37.1493 57.1667 34C57.1667 27.7194 54.959 22.3715 50.5438 17.9563C46.1285 13.541 40.7806 11.3333 34.5 11.3333C28.2194 11.3333 22.8715 13.541 18.4563 17.9563C14.041 22.3715 11.8333 27.7194 11.8333 34C11.8333 37.1493 12.4027 40.0426 13.5415 42.6798C14.6803 45.317 16.185 47.6037 18.0558 49.5398ZM34.5016 35.4167C32.114 35.4167 30.1001 34.5972 28.4601 32.9583C26.82 31.3193 26 29.3059 26 26.9183C26 24.5306 26.8195 22.5168 28.4584 20.8768C30.0974 19.2367 32.1107 18.4167 34.4984 18.4167C36.886 18.4167 38.8999 19.2362 40.5399 20.8751C42.18 22.5141 43 24.5274 43 26.915C43 29.3027 42.1805 31.3165 40.5415 32.9566C38.9026 34.5966 36.8893 35.4167 34.5016 35.4167ZM34.5 59.5C30.9438 59.5 27.6146 58.838 24.5125 57.514C21.4104 56.1899 18.7114 54.38 16.4157 52.0843C14.12 49.7886 12.3101 47.0896 10.986 43.9875C9.66201 40.8854 9 37.5562 9 34C9 30.4438 9.66201 27.1146 10.986 24.0125C12.3101 20.9104 14.12 18.2114 16.4157 15.9157C18.7114 13.62 21.4104 11.8101 24.5125 10.486C27.6146 9.16201 30.9438 8.5 34.5 8.5C38.0562 8.5 41.3854 9.16201 44.4875 10.486C47.5896 11.8101 50.2886 13.62 52.5843 15.9157C54.88 18.2114 56.6899 20.9104 58.014 24.0125C59.338 27.1146 60 30.4438 60 34C60 37.5562 59.338 40.8854 58.014 43.9875C56.6899 47.0896 54.88 49.7886 52.5843 52.0843C50.2886 54.38 47.5896 56.1899 44.4875 57.514C41.3854 58.838 38.0562 59.5 34.5 59.5ZM34.5 56.6667C37.1118 56.6667 39.6817 56.2099 42.2099 55.2963C44.7382 54.3828 46.9231 53.1323 48.7648 51.5448C46.9231 50.0665 44.7926 48.8977 42.3734 48.0386C39.9542 47.1795 37.3297 46.75 34.5 46.75C31.6703 46.75 29.0368 47.1705 26.5994 48.0114C24.162 48.8523 22.0406 50.0301 20.2352 51.5448C22.0769 53.1323 24.2618 54.3828 26.7901 55.2963C29.3183 56.2099 31.8882 56.6667 34.5 56.6667ZM34.5 32.5833C36.091 32.5833 37.4332 32.0366 38.5266 30.9433C39.62 29.8499 40.1667 28.5077 40.1667 26.9167C40.1667 25.3257 39.62 23.9835 38.5266 22.8901C37.4332 21.7967 36.091 21.25 34.5 21.25C32.909 21.25 31.5668 21.7967 30.4734 22.8901C29.38 23.9835 28.8333 25.3257 28.8333 26.9167C28.8333 28.5077 29.38 29.8499 30.4734 30.9433C31.5668 32.0366 32.909 32.5833 34.5 32.5833Z" fill="#FAB73B"/>
    </g>
  </symbol>

  <symbol viewBox="0 0 73 73" id="seat">
    <mask id="mask0_1024_2082" style="mask-type:alpha" maskUnits="userSpaceOnUse" x="0" y="0" width="73" height="73">
      <rect width="72.6665" height="72.6665" fill="#D9D9D9"/>
    </mask>
    <g mask="url(#mask0_1024_2082)">
      <path d="M23.8729 19.9134C22.4793 19.9134 21.2769 19.4078 20.2657 18.3966C19.2545 17.3854 18.7489 16.183 18.7489 14.7894C18.7489 13.3959 19.2545 12.1935 20.2657 11.1823C21.2769 10.1711 22.4793 9.66553 23.8729 9.66553C25.2664 9.66553 26.4688 10.1711 27.48 11.1823C28.4912 12.1935 28.9968 13.3959 28.9968 14.7894C28.9968 16.183 28.4912 17.3854 27.48 18.3966C26.4688 19.4078 25.2664 19.9134 23.8729 19.9134ZM42.3888 57.5276H24.3736C22.98 57.5276 21.7252 57.0802 20.6092 56.1855C19.4933 55.2908 18.7974 54.1466 18.5218 52.7531L12.2275 21.1944H15.2903L21.602 52.6366C21.7185 53.1024 21.9999 53.5294 22.4463 53.9176C22.8927 54.3058 23.3488 54.4999 23.8146 54.4999H42.3888V57.5276ZM57.7606 64.7477L50.0281 51.4721H28.17C27.0559 51.4721 26.1117 51.1373 25.3373 50.4677C24.5629 49.798 24.0437 48.945 23.7797 47.9086L20.2162 30.8949C19.7776 28.822 20.2483 27.0558 21.6282 25.5963C23.0082 24.1368 24.6182 23.407 26.4581 23.407C27.875 23.407 29.1763 23.8301 30.3622 24.6763C31.5481 25.5225 32.3041 26.6793 32.6301 28.1466L36.3101 45.4165H47.5477C48.3357 45.4165 49.0674 45.6164 49.7428 46.0163C50.4183 46.4161 50.9753 46.9925 51.4139 47.7456L60.3808 63.2338L57.7606 64.7477Z" fill="#FAB73B"/>
    </g>
  </symbol>

  <symbol viewBox="0 0 73 73" id="flower">
    <mask id="mask0_1024_2052" style="mask-type:alpha" maskUnits="userSpaceOnUse" x="0" y="0" width="73" height="73">
      <rect width="72.6665" height="72.6665" fill="#D9D9D9"/>
    </mask>
    <g mask="url(#mask0_1024_2052)">
      <path d="M34.1094 59.9731C33.6552 58.6517 33.0749 57.432 32.3684 56.3139C31.662 55.1958 30.8293 54.1539 29.8705 53.1883C28.9117 52.2227 27.8772 51.3837 26.7671 50.6714C25.6569 49.9591 24.4458 49.3759 23.1337 48.9217C23.2347 50.3851 23.5879 51.7476 24.1935 53.0092C24.799 54.2708 25.6064 55.4062 26.6157 56.4154C27.6249 57.4247 28.7603 58.235 30.0219 58.8464C31.2835 59.4578 32.646 59.8333 34.1094 59.9731ZM38.4998 59.9731C39.9632 59.8605 41.331 59.5014 42.6034 58.8959C43.8757 58.2903 45.0209 57.4829 46.0387 56.4737C47.0566 55.4644 47.8684 54.3193 48.4739 53.0383C49.0795 51.7573 49.4385 50.3851 49.5511 48.9217C48.2483 49.3759 47.0332 49.9562 45.9058 50.6627C44.7784 51.3692 43.7387 52.2018 42.7867 53.1606C41.8347 54.1194 40.9981 55.1665 40.2769 56.3019C39.5557 57.4373 38.9634 58.661 38.4998 59.9731ZM36.3337 35.0522C39.5478 35.0522 42.2728 33.9342 44.5087 31.6983C46.7446 29.4624 47.8625 26.7374 47.8625 23.5233V18.1432L42.5639 22.6092L36.3337 14.3585L30.1034 22.6092L24.8048 18.1432V23.5233C24.8048 26.7374 25.9228 29.4624 28.1587 31.6983C30.3946 33.9342 33.1196 35.0522 36.3337 35.0522ZM35.1691 63.0008C30.9639 63.0008 27.3894 61.529 24.4457 58.5854C21.5021 55.6417 20.0303 52.0672 20.0303 47.862V45.1836C23.225 45.6765 26.1402 46.8255 28.7759 48.6305C31.4116 50.4355 33.4262 52.6443 34.8198 55.2567V38.0276C31.1399 37.6704 28.0461 36.1148 25.5385 33.3607C23.0309 30.6066 21.7771 27.3275 21.7771 23.5233V16.8389C21.7771 15.7598 22.2604 15.0135 23.2269 14.6001C24.1935 14.1867 25.0649 14.3313 25.8412 15.0339L29.6959 18.3645L34.3948 12.1808C34.8978 11.552 35.5476 11.2375 36.3441 11.2375C37.1407 11.2375 37.7835 11.552 38.2726 12.1808L42.9715 18.3645L46.8261 15.0339C47.6024 14.3313 48.4739 14.1867 49.4404 14.6001C50.407 15.0135 50.8903 15.7598 50.8903 16.8389V23.5233C50.8903 27.3275 49.6365 30.6066 47.1289 33.3607C44.6213 36.1148 41.5275 37.6704 37.8476 38.0276V55.1984C39.2412 52.6248 41.2461 50.4355 43.8624 48.6305C46.4787 46.8255 49.3648 45.6765 52.5207 45.1836V47.862C52.5207 52.0672 51.0545 55.6417 48.1222 58.5854C45.1898 61.529 41.6291 63.0008 37.44 63.0008H35.1691Z" fill="#FAB73B"/>
    </g>
  </symbol>

  <symbol viewBox="0 0 73 73" id="coronavirus">
    <mask id="mask0_1023_2052" style="mask-type:alpha" maskUnits="userSpaceOnUse" x="0" y="0" width="73" height="73">
      <rect width="72.6665" height="72.6665" fill="#D9D9D9"/>
    </mask>
    <g mask="url(#mask0_1023_2052)">
      <path d="M34.0627 62.8845C33.69 62.8845 33.3736 62.7545 33.1136 62.4944C32.8535 62.2343 32.7235 61.918 32.7235 61.5453C32.7235 61.1727 32.8535 60.8563 33.1136 60.5962C33.3736 60.3361 33.69 60.2061 34.0627 60.2061H34.9943V54.465C32.7196 54.2127 30.7166 53.7081 28.9853 52.9511C27.2541 52.1942 25.7091 51.2043 24.3505 49.9815L20.2805 54.069L20.9792 54.7678C21.2781 55.0667 21.4178 55.3927 21.3984 55.746C21.379 56.0992 21.2393 56.4059 20.9792 56.666C20.6803 56.9648 20.3543 57.1046 20.001 57.0852C19.6478 57.0657 19.3217 56.9066 19.0228 56.6077L15.9426 53.545C15.6437 53.2461 15.4943 52.9268 15.4943 52.5872C15.4943 52.2475 15.6437 51.9282 15.9426 51.6293C16.2415 51.3304 16.5579 51.2033 16.8917 51.248C17.2255 51.2926 17.5419 51.4391 17.8408 51.6875L18.423 52.2699L22.5105 48.1824C21.1325 46.5404 20.1233 44.9275 19.4828 43.3437C18.8423 41.76 18.4153 39.8696 18.2018 37.6724H12.4607V38.6041C12.4607 38.9768 12.3306 39.2931 12.0705 39.5532C11.8105 39.8133 11.4941 39.9433 11.1215 39.9433C10.7488 39.9433 10.4324 39.8133 10.1724 39.5532C9.91227 39.2931 9.78223 38.9768 9.78223 38.6041V34.0624C9.78223 33.6898 9.91227 33.3734 10.1724 33.1133C10.4324 32.8533 10.7488 32.7233 11.1215 32.7233C11.4941 32.7233 11.8105 32.8533 12.0705 33.1133C12.3306 33.3734 12.4607 33.6898 12.4607 34.0624V34.9941H18.2018C18.4153 32.797 18.8646 30.8969 19.5497 29.2937C20.2349 27.6905 21.2412 26.0874 22.5688 24.4842L18.4813 20.3967L17.8408 21.0372C17.5419 21.3244 17.2255 21.471 16.8917 21.4768C16.5579 21.4826 16.2415 21.3361 15.9426 21.0372C15.6437 20.7383 15.4943 20.419 15.4943 20.0794C15.4943 19.7397 15.6437 19.4204 15.9426 19.1215L19.1218 15.9424C19.4207 15.6435 19.7496 15.494 20.1087 15.494C20.4678 15.494 20.7968 15.6435 21.0956 15.9424C21.3945 16.2413 21.5246 16.5605 21.4858 16.9002C21.447 17.2399 21.2781 17.5591 20.9792 17.858L20.3387 18.4985L24.4087 22.5686C26.1283 21.1905 27.7412 20.1813 29.2474 19.5408C30.7535 18.9003 32.6439 18.4538 34.9186 18.2015V12.4604H34.0452C33.6726 12.4604 33.3591 12.3304 33.1048 12.0703C32.8506 11.8102 32.7235 11.4939 32.7235 11.1212C32.7235 10.7486 32.8535 10.4322 33.1136 10.1721C33.3736 9.91202 33.69 9.78198 34.0627 9.78198H38.6043C38.977 9.78198 39.2934 9.91202 39.5535 10.1721C39.8135 10.4322 39.9435 10.7486 39.9435 11.1212C39.9435 11.4939 39.8135 11.8102 39.5535 12.0703C39.2934 12.3304 38.977 12.4604 38.6043 12.4604H37.6727V18.2015C39.9474 18.4538 41.8378 18.9003 43.3439 19.5408C44.8501 20.1813 46.463 21.1905 48.1826 22.5686L52.2701 18.4811L51.5714 17.7823C51.3113 17.5223 51.1812 17.2156 51.1812 16.8623C51.1812 16.5091 51.3113 16.2024 51.5714 15.9424C51.8703 15.6435 52.1895 15.494 52.5292 15.494C52.8689 15.494 53.1882 15.6435 53.487 15.9424L56.7244 19.1972C57.0233 19.4961 57.1727 19.8125 57.1727 20.1463C57.1727 20.4802 57.0233 20.7965 56.7244 21.0954C56.4255 21.3943 56.116 21.5341 55.7957 21.5147C55.4754 21.4952 55.1658 21.3361 54.867 21.0372L54.1683 20.3385L50.0982 24.4085C51.4763 26.0505 52.4952 27.6857 53.1551 29.3141C53.815 30.9424 54.2517 32.8358 54.4652 34.9941H60.2063V34.0624C60.2063 33.6898 60.3364 33.3734 60.5965 33.1133C60.8566 32.8533 61.1729 32.7233 61.5455 32.7233C61.9182 32.7233 62.2346 32.8533 62.4947 33.1133C62.7547 33.3734 62.8848 33.6898 62.8848 34.0624V38.6041C62.8848 38.9768 62.7547 39.2931 62.4947 39.5532C62.2346 39.8133 61.9182 39.9433 61.5455 39.9433C61.1729 39.9433 60.8566 39.8133 60.5965 39.5532C60.3364 39.2931 60.2063 38.9768 60.2063 38.6041V37.6724H54.4652C54.2517 39.8696 53.815 41.7629 53.1551 43.3525C52.4952 44.9421 51.4763 46.5578 50.0982 48.1998L54.1683 52.2699L54.867 51.5711C55.1658 51.2722 55.4851 51.1325 55.8248 51.1519C56.1645 51.1713 56.4837 51.311 56.7826 51.5711C57.0815 51.8312 57.231 52.1505 57.231 52.529C57.231 52.9074 57.0815 53.2461 56.7826 53.545L53.6035 56.7242C53.3046 57.0231 52.9756 57.1725 52.6166 57.1725C52.2575 57.1725 51.9285 57.0231 51.6296 56.7242C51.3695 56.4641 51.2424 56.1574 51.2482 55.8042C51.254 55.4509 51.4006 55.1249 51.6878 54.826L52.2701 54.1855L48.1826 50.098C46.7735 51.3207 45.2479 52.2941 43.606 53.018C41.964 53.742 39.9863 54.2301 37.6727 54.4824V60.2061H38.6043C38.977 60.2061 39.2934 60.3361 39.5535 60.5962C39.8135 60.8563 39.9435 61.1727 39.9435 61.5453C39.9435 61.918 39.8135 62.2343 39.5535 62.4944C39.2934 62.7545 38.977 62.8845 38.6043 62.8845H34.0627ZM36.3335 51.4721C40.5219 51.4721 44.0922 49.9961 47.0442 47.044C49.9963 44.0919 51.4724 40.5217 51.4724 36.3333C51.4724 32.1448 49.9963 28.5746 47.0442 25.6225C44.0922 22.6704 40.5219 21.1944 36.3335 21.1944C32.1451 21.1944 28.5748 22.6704 25.6228 25.6225C22.6707 28.5746 21.1947 32.1448 21.1947 36.3333C21.1947 40.5217 22.6707 44.0919 25.6228 47.044C28.5748 49.9961 32.1451 51.4721 36.3335 51.4721ZM31.6171 47.1634C32.2421 47.1634 32.7865 46.9314 33.2504 46.4676C33.7143 46.0037 33.9463 45.4593 33.9463 44.8343C33.9463 44.2094 33.7143 43.6649 33.2504 43.2011C32.7865 42.7372 32.2421 42.5052 31.6171 42.5052C30.9922 42.5052 30.4478 42.7372 29.9839 43.2011C29.52 43.6649 29.2881 44.2094 29.2881 44.8343C29.2881 45.4593 29.52 46.0037 29.9839 46.4676C30.4478 46.9314 30.9922 47.1634 31.6171 47.1634ZM41.0499 47.1634C41.6748 47.1634 42.2192 46.9314 42.6831 46.4676C43.147 46.0037 43.3789 45.4593 43.3789 44.8343C43.3789 44.2094 43.147 43.6649 42.6831 43.2011C42.2192 42.7372 41.6748 42.5052 41.0499 42.5052C40.4249 42.5052 39.8805 42.7372 39.4166 43.2011C38.9527 43.6649 38.7208 44.2094 38.7208 44.8343C38.7208 45.4593 38.9527 46.0037 39.4166 46.4676C39.8805 46.9314 40.4249 47.1634 41.0499 47.1634ZM26.3185 38.6623C26.9435 38.6623 27.488 38.4304 27.9518 37.9665C28.4157 37.5027 28.6477 36.9582 28.6477 36.3333C28.6477 35.7083 28.4157 35.1639 27.9518 34.7C27.488 34.2362 26.9435 34.0042 26.3185 34.0042C25.6936 34.0042 25.1492 34.2362 24.6853 34.7C24.2214 35.1639 23.9895 35.7083 23.9895 36.3333C23.9895 36.9582 24.2214 37.5027 24.6853 37.9665C25.1492 38.4304 25.6936 38.6623 26.3185 38.6623ZM36.3335 38.6623C36.9585 38.6623 37.5029 38.4304 37.9668 37.9665C38.4306 37.5027 38.6625 36.9582 38.6625 36.3333C38.6625 35.7083 38.4306 35.1639 37.9668 34.7C37.5029 34.2362 36.9585 34.0042 36.3335 34.0042C35.7085 34.0042 35.1641 34.2362 34.7003 34.7C34.2364 35.1639 34.0045 35.7083 34.0045 36.3333C34.0045 36.9582 34.2364 37.5027 34.7003 37.9665C35.1641 38.4304 35.7085 38.6623 36.3335 38.6623ZM46.3485 38.6623C46.9734 38.6623 47.5178 38.4304 47.9817 37.9665C48.4456 37.5027 48.6775 36.9582 48.6775 36.3333C48.6775 35.7083 48.4456 35.1639 47.9817 34.7C47.5178 34.2362 46.9734 34.0042 46.3485 34.0042C45.7235 34.0042 45.1791 34.2362 44.7152 34.7C44.2513 35.1639 44.0194 35.7083 44.0194 36.3333C44.0194 36.9582 44.2513 37.5027 44.7152 37.9665C45.1791 38.4304 45.7235 38.6623 46.3485 38.6623ZM31.6171 30.1613C32.2421 30.1613 32.7865 29.9294 33.2504 29.4654C33.7143 29.0016 33.9463 28.4572 33.9463 27.8322C33.9463 27.2073 33.7143 26.6628 33.2504 26.1989C32.7865 25.7351 32.2421 25.5032 31.6171 25.5032C30.9922 25.5032 30.4478 25.7351 29.9839 26.1989C29.52 26.6628 29.2881 27.2073 29.2881 27.8322C29.2881 28.4572 29.52 29.0016 29.9839 29.4654C30.4478 29.9294 30.9922 30.1613 31.6171 30.1613ZM41.0499 30.1613C41.6748 30.1613 42.2192 29.9294 42.6831 29.4654C43.147 29.0016 43.3789 28.4572 43.3789 27.8322C43.3789 27.2073 43.147 26.6628 42.6831 26.1989C42.2192 25.7351 41.6748 25.5032 41.0499 25.5032C40.4249 25.5032 39.8805 25.7351 39.4166 26.1989C38.9527 26.6628 38.7208 27.2073 38.7208 27.8322C38.7208 28.4572 38.9527 29.0016 39.4166 29.4654C39.8805 29.9294 40.4249 30.1613 41.0499 30.1613Z" fill="#FAB73B"/>
    </g>
  </symbol>

  <symbol viewBox="0 0 22 22" id="avis-star">
    <path id="Star 2" d="M11.5 0L14.0819 7.60081H22.4371L15.6776 12.2984L18.2595 19.8992L11.5 15.2016L4.74047 19.8992L7.32238 12.2984L0.56285 7.60081H8.91809L11.5 0Z" fill="#FAB73B"/>
  </symbol>

  <symbol viewBox="0 0 73 73" id="aeration">
    <mask id="mask0_1016_2097" style="mask-type:alpha" maskUnits="userSpaceOnUse" x="0" y="0" width="73" height="73">
      <rect width="72.6665" height="72.6665" fill="#D9D9D9"/>
    </mask>
    <g mask="url(#mask0_1016_2097)">
      <path d="M36.3331 16.5363C35.7082 16.5363 35.1637 16.3044 34.6999 15.8405C34.236 15.3767 34.0041 14.8323 34.0041 14.2073C34.0041 13.5823 34.236 13.0379 34.6999 12.574C35.1637 12.1102 35.7082 11.8782 36.3331 11.8782C36.9581 11.8782 37.5025 12.1102 37.9664 12.574C38.4302 13.0379 38.6622 13.5823 38.6622 14.2073C38.6622 14.8323 38.4302 15.3767 37.9664 15.8405C37.5025 16.3044 36.9581 16.5363 36.3331 16.5363ZM36.3331 6.52143C35.7082 6.52143 35.1637 6.28948 34.6999 5.82557C34.236 5.36172 34.0041 4.81733 34.0041 4.1924C34.0041 3.56741 34.236 3.02299 34.6999 2.55914C35.1637 2.09523 35.7082 1.86328 36.3331 1.86328C36.9581 1.86328 37.5025 2.09523 37.9664 2.55914C38.4302 3.02299 38.6622 3.56741 38.6622 4.1924C38.6622 4.81733 38.4302 5.36172 37.9664 5.82557C37.5025 6.28948 36.9581 6.52143 36.3331 6.52143ZM27.4129 61.8365C24.9208 60.3071 22.9799 58.2769 21.5902 55.746C20.2005 53.2151 19.4863 50.4707 19.4475 47.5128C19.4863 44.124 20.4354 41.0506 22.2947 38.2927C24.1541 35.5347 26.6209 33.4278 29.6953 31.9721V24.4551C29.6953 24.0262 29.8404 23.6667 30.1306 23.3765C30.4208 23.0863 30.7803 22.9413 31.2092 22.9413H41.457C41.886 22.9413 42.2455 23.0863 42.5358 23.3765C42.8259 23.6667 42.971 24.0262 42.971 24.4551V31.9721C46.0337 33.4278 48.4976 35.5347 50.3628 38.2927C52.228 41.0506 53.18 44.124 53.2188 47.5128C53.18 50.4707 52.4658 53.2151 51.0761 55.746C49.6864 58.2769 47.7455 60.3071 45.2534 61.8365H27.4129ZM28.2979 58.8087H44.3684C46.1695 57.4617 47.5902 55.8088 48.6306 53.8498C49.6709 51.8909 50.191 49.7785 50.191 47.5128C50.191 44.8474 49.4797 42.4003 48.057 40.1715C46.6343 37.9426 44.7216 36.2363 42.3188 35.0523L39.9431 33.9111V25.969H32.7231V33.9111L30.3475 35.0523C27.9447 36.2363 26.0319 37.9426 24.6092 40.1715C23.1866 42.4003 22.4753 44.8474 22.4753 47.5128C22.4753 49.7785 22.9954 51.8909 24.0357 53.8498C25.076 55.8088 26.4968 57.4617 28.2979 58.8087ZM19.3311 9.5492C18.7061 9.5492 18.1617 9.31725 17.6978 8.85335C17.2339 8.38949 17.002 7.8451 17.002 7.22017C17.002 6.59518 17.2339 6.05076 17.6978 5.58691C18.1617 5.123 18.7061 4.89105 19.3311 4.89105C19.956 4.89105 20.5004 5.123 20.9643 5.58691C21.4282 6.05076 21.6601 6.59518 21.6601 7.22017C21.6601 7.8451 21.4282 8.38949 20.9643 8.85335C20.5004 9.31725 19.956 9.5492 19.3311 9.5492ZM53.3352 9.5492C52.7103 9.5492 52.1659 9.31725 51.702 8.85335C51.2381 8.38949 51.0062 7.8451 51.0062 7.22017C51.0062 6.59518 51.2381 6.05076 51.702 5.58691C52.1659 5.123 52.7103 4.89105 53.3352 4.89105C53.9602 4.89105 54.5046 5.123 54.9685 5.58691C55.4324 6.05076 55.6643 6.59518 55.6643 7.22017C55.6643 7.8451 55.4324 8.38949 54.9685 8.85335C54.5046 9.31725 53.9602 9.5492 53.3352 9.5492ZM26.3182 16.5363C25.6932 16.5363 25.1488 16.3044 24.6849 15.8405C24.2211 15.3767 23.9891 14.8323 23.9891 14.2073C23.9891 13.5823 24.2211 13.0379 24.6849 12.574C25.1488 12.1102 25.6932 11.8782 26.3182 11.8782C26.9432 11.8782 27.4876 12.1102 27.9514 12.574C28.4153 13.0379 28.6473 13.5823 28.6473 14.2073C28.6473 14.8323 28.4153 15.3767 27.9514 15.8405C27.4876 16.3044 26.9432 16.5363 26.3182 16.5363ZM46.3481 16.5363C45.7231 16.5363 45.1787 16.3044 44.7148 15.8405C44.2509 15.3767 44.019 14.8323 44.019 14.2073C44.019 13.5823 44.2509 13.0379 44.7148 12.574C45.1787 12.1102 45.7231 11.8782 46.3481 11.8782C46.973 11.8782 47.5174 12.1102 47.9814 12.574C48.4452 13.0379 48.6771 13.5823 48.6771 14.2073C48.6771 14.8323 48.4452 15.3767 47.9814 15.8405C47.5174 16.3044 46.973 16.5363 46.3481 16.5363Z" fill="#FAB73B"/>
    </g>
  </symbol>

  <symbol viewBox="0 0 73 73" id="restauration">
    <mask id="mask0_1019_2134" style="mask-type:alpha" maskUnits="userSpaceOnUse" x="0" y="0" width="73" height="73">
      <rect width="72.6665" height="72.6665" fill="#D9D9D9"/>
    </mask>
    <g mask="url(#mask0_1019_2134)">
      <path d="M53.795 24.2804C52.219 24.2804 50.8167 23.6644 49.5882 22.4322C48.3596 21.2 47.7453 19.7961 47.7453 18.2206C47.7453 16.8066 48.2092 15.2117 49.1369 13.4358C50.0646 11.6598 51.6193 9.4909 53.8008 6.92896C55.9824 9.4909 57.5371 11.6598 58.4648 13.4358C59.3925 15.2117 59.8564 16.8066 59.8564 18.2206C59.8564 19.7961 59.2402 21.2 58.0077 22.4322C56.7752 23.6644 55.371 24.2804 53.795 24.2804ZM19.6802 63.5832C16.7378 63.5832 14.236 62.6691 12.1748 60.8408C10.1136 59.0125 9.08301 56.6272 9.08301 53.6848V38.7322C9.08301 37.43 9.38745 36.2223 9.99633 35.1091C10.6053 33.9959 11.4556 33.0822 12.5475 32.3681L37.119 16.4606L37.4684 16.81C38.2059 17.5475 38.6241 18.4258 38.7231 19.4448C38.8221 20.4637 38.6096 21.4041 38.0856 22.2658L32.9325 30.86H56.0135C56.4424 30.86 56.8019 31.0053 57.0921 31.2959C57.3823 31.5864 57.5273 31.9464 57.5273 32.3759C57.5273 32.8055 57.3823 33.1648 57.0921 33.454C56.8019 33.7432 56.4424 33.8878 56.0135 33.8878H27.5641L35.081 21.3575L14.2302 34.8776C13.582 35.2852 13.0667 35.8326 12.6843 36.5197C12.302 37.2067 12.1108 37.9442 12.1108 38.7322V53.6848C12.1108 55.777 12.852 57.4452 14.3343 58.6893C15.8166 59.9334 17.5986 60.5555 19.6802 60.5555H52.9857C53.4146 60.5555 53.7742 60.7008 54.0643 60.9913C54.3545 61.2819 54.4996 61.6419 54.4996 62.0714C54.4996 62.5009 54.3545 62.8603 54.0643 63.1494C53.7742 63.4386 53.4146 63.5832 52.9857 63.5832H19.6802ZM39.3607 43.7863V40.7585H62.069C62.4979 40.7585 62.8575 40.9037 63.1476 41.1943C63.4378 41.4849 63.5829 41.8449 63.5829 42.2745C63.5829 42.704 63.4378 43.0633 63.1476 43.3525C62.8575 43.6417 62.4979 43.7863 62.069 43.7863H39.3607ZM39.3607 53.6848V50.657H59.0412C59.4702 50.657 59.8297 50.8023 60.1199 51.0929C60.41 51.3834 60.5551 51.7434 60.5551 52.1729C60.5551 52.6024 60.41 52.9618 60.1199 53.251C59.8297 53.5402 59.4702 53.6848 59.0412 53.6848H39.3607Z" fill="#FAB73B"/>
    </g>
  </symbol>

  <symbol viewBox="0 0 73 73" id="finition">
    <mask id="mask0_1019_2146" style="mask-type:alpha" maskUnits="userSpaceOnUse" x="0" y="0" width="73" height="73">
      <rect width="72.6665" height="72.6665" fill="#D9D9D9"/>
    </mask>
    <g mask="url(#mask0_1019_2146)">
      <path d="M47.3961 36.5661C45.1524 34.6796 43.0495 32.8212 41.0873 30.9909C39.125 29.1607 37.4248 27.378 35.9866 25.6428C34.5484 23.9077 33.4121 22.2454 32.5775 20.6558C31.7429 19.0662 31.3256 17.5688 31.3256 16.1635C31.3256 13.9199 32.1 12.0237 33.6488 10.4749C35.1977 8.92604 37.0939 8.15161 39.3376 8.15161C40.7583 8.15161 42.1654 8.53107 43.559 9.28998C44.9525 10.0488 46.2316 11.2027 47.3961 12.7515C48.5606 11.2027 49.8397 10.0488 51.2332 9.28998C52.6268 8.53107 54.0339 8.15161 55.4546 8.15161C57.6983 8.15161 59.5945 8.92604 61.1433 10.4749C62.6922 12.0237 63.4666 13.9199 63.4666 16.1635C63.4666 17.5688 63.0493 19.0662 62.2147 20.6558C61.3801 22.2454 60.2438 23.9077 58.8056 25.6428C57.3674 27.378 55.6701 29.1607 53.7136 30.9909C51.7572 32.8212 49.6514 34.6796 47.3961 36.5661ZM47.3961 32.467C50.8392 29.5246 53.8738 26.6045 56.4998 23.7068C59.1258 20.8091 60.4388 18.2946 60.4388 16.1635C60.4388 14.7312 59.9662 13.5424 59.021 12.5972C58.0758 11.652 56.887 11.1794 55.4546 11.1794C54.6317 11.1794 53.7302 11.4249 52.75 11.916C51.7699 12.407 50.7228 13.3765 49.6087 14.8244L47.3961 17.596L45.1835 14.8244C44.0694 13.3765 43.0223 12.407 42.0422 11.916C41.062 11.4249 40.1605 11.1794 39.3376 11.1794C37.9052 11.1794 36.7164 11.652 35.7712 12.5972C34.826 13.5424 34.3534 14.7312 34.3534 16.1635C34.3534 18.2946 35.6664 20.8091 38.2924 23.7068C40.9184 26.6045 43.953 29.5246 47.3961 32.467ZM41.3406 63.816L18.283 57.0967V61.0212H6.17188V36.3332H25.4681L43.7744 43.0642C44.8574 43.4756 45.79 44.2151 46.5723 45.2826C47.3544 46.3501 47.7455 47.7145 47.7455 49.3759H56.8288C58.6532 49.3759 60.0603 50.0164 61.0502 51.2974C62.0401 52.5784 62.535 54.2669 62.535 56.363V57.1783L41.3406 63.816ZM9.19957 57.9934H15.2551V39.361H9.19957V57.9934ZM41.1892 60.6019L59.3208 55.0005C59.2859 54.2126 59.0424 53.5828 58.5902 53.1111C58.1379 52.6395 57.5508 52.4037 56.8288 52.4037H42.6449C41.2746 52.4037 39.9198 52.3125 38.5806 52.13C37.2414 51.9476 36.0148 51.6623 34.9007 51.2741L29.0373 49.341L30.1378 46.3831L35.844 48.3511C36.8688 48.7315 38.0255 48.9975 39.3143 49.1488C40.603 49.3002 42.4042 49.3759 44.7177 49.3759C44.7177 48.4326 44.544 47.6699 44.1966 47.0876C43.8492 46.5053 43.3513 46.0997 42.7031 45.8707L24.9906 39.361H18.283V53.9176L41.1892 60.6019Z" fill="#FAB73B"/>
    </g>
  </symbol>

  <symbol viewBox="0 0 73 73" id="shiny">
    <mask id="mask0_1016_2091" style="mask-type:alpha" maskUnits="userSpaceOnUse" x="0" y="0" width="73" height="73">
      <rect width="72.6665" height="72.6665" fill="#D9D9D9"/>
    </mask>
    <g mask="url(#mask0_1016_2091)">
      <path d="M34.8193 16.4197V6.17188H37.8471V16.4197H34.8193ZM51.4604 23.3487L49.3933 21.2817L56.5319 13.8578L58.7328 16.0762L51.4604 23.3487ZM56.2466 37.8471V34.8193H66.4945V37.8471H56.2466ZM34.8193 66.4945V56.3048H37.8471V66.4945H34.8193ZM21.3224 23.2555L13.8578 16.1344L16.1345 13.9916L23.4069 21.2059L21.3224 23.2555ZM56.5144 58.8085L49.3933 51.3846L51.443 49.3932L58.6746 56.4969L56.5144 58.8085ZM6.17188 37.8471V34.8193H16.4197V37.8471H6.17188ZM16.0762 58.8085L13.9917 56.5319L21.1303 49.3933L22.2191 50.4473L23.3661 51.5187L16.0762 58.8085ZM36.3469 51.472C32.1454 51.472 28.5696 50.0015 25.6195 47.0606C22.6694 44.1195 21.1943 40.5483 21.1943 36.3469C21.1943 32.1454 22.6648 28.5696 25.6058 25.6195C28.5468 22.6694 32.118 21.1943 36.3195 21.1943C40.5209 21.1943 44.0967 22.6648 47.0469 25.6058C49.997 28.5468 51.472 32.118 51.472 36.3195C51.472 40.5209 50.0015 44.0967 47.0606 47.0469C44.1195 49.997 40.5483 51.472 36.3469 51.472ZM36.3332 48.4443C39.6637 48.4443 42.5149 47.2584 44.8866 44.8866C47.2584 42.5149 48.4443 39.6637 48.4443 36.3332C48.4443 33.0026 47.2584 30.1515 44.8866 27.7797C42.5149 25.408 39.6637 24.2221 36.3332 24.2221C33.0026 24.2221 30.1515 25.408 27.7797 27.7797C25.408 30.1515 24.2221 33.0026 24.2221 36.3332C24.2221 39.6637 25.408 42.5149 27.7797 44.8866C30.1515 47.2584 33.0026 48.4443 36.3332 48.4443Z" fill="#FAB73B"/>
    </g>
  </symbol>


  <symbol viewBox="0 0 22 22" id="avis-star-stroke">
    <path d="M10.5 3.37575L11.9023 7.89704L12.1206 8.60081H12.8574H17.5212L13.7087 11.5026L13.152 11.9264L13.3592 12.5946L14.791 17.211L11.1057 14.4059L10.5 13.9449L9.89434 14.4059L6.209 17.211L7.64077 12.5946L7.84802 11.9264L7.29131 11.5026L3.47882 8.60081H8.1426H8.87945L9.09772 7.89704L10.5 3.37575Z" stroke="#F9B928" stroke-width="2" fill="none"/>
  </symbol>

  <symbol viewBox="0 0 73 73" id="air">
    <mask id="mask0_1016_2055" style="mask-type:alpha" maskUnits="userSpaceOnUse" x="0" y="0" width="73" height="73">
      <rect width="72.6665" height="72.6665" fill="#D9D9D9"/>
    </mask>
    <g mask="url(#mask0_1016_2055)">
      <path d="M34.8193 58.3428C32.9948 58.3428 31.4033 57.7605 30.0447 56.596C28.6861 55.4314 27.8321 53.9952 27.4828 52.2872H30.6269C30.9375 53.1839 31.4703 53.9127 32.2253 54.4737C32.9803 55.0345 33.8449 55.315 34.8193 55.315C36.0653 55.315 37.1338 54.8696 38.0246 53.9787C38.9155 53.0879 39.3609 52.0194 39.3609 50.7733C39.3609 49.5273 38.9155 48.4589 38.0246 47.568C37.1338 46.6771 36.0653 46.2317 34.8193 46.2317H7.56934V43.2039H34.8193C36.9155 43.2039 38.7011 43.9415 40.1761 45.4165C41.6512 46.8916 42.3887 48.6772 42.3887 50.7733C42.3887 52.8695 41.6512 54.6551 40.1761 56.1302C38.7011 57.6053 36.9155 58.3428 34.8193 58.3428ZM7.56934 29.4625V26.4348H46.9304C48.6306 26.4348 50.0649 25.8505 51.2333 24.6821C52.4017 23.5137 52.9859 22.0794 52.9859 20.3792C52.9859 18.679 52.4017 17.2447 51.2333 16.0763C50.0649 14.9079 48.6306 14.3237 46.9304 14.3237C45.4631 14.3237 44.2034 14.7526 43.1515 15.6105C42.0995 16.4683 41.4183 17.5533 41.1077 18.8653H37.9635C38.3128 16.6643 39.325 14.8525 41 13.4299C42.675 12.0072 44.6518 11.2959 46.9304 11.2959C49.4807 11.2959 51.6322 12.1722 53.3847 13.9248C55.1374 15.6774 56.0137 17.8289 56.0137 20.3792C56.0137 22.9295 55.1374 25.081 53.3847 26.8336C51.6322 28.5862 49.4807 29.4625 46.9304 29.4625H7.56934ZM57.5276 52.8695V49.7253C58.8396 49.4147 59.9245 48.7335 60.7824 47.6815C61.6403 46.6296 62.0692 45.37 62.0692 43.9026C62.0692 42.2025 61.485 40.7681 60.3166 39.5997C59.1482 38.4313 57.7139 37.8471 56.0137 37.8471H7.56934V34.8193H56.0137C58.564 34.8193 60.7155 35.6956 62.468 37.4483C64.2207 39.2008 65.097 41.3523 65.097 43.9026C65.097 46.1812 64.3857 48.158 62.963 49.833C61.5403 51.508 59.7285 52.5202 57.5276 52.8695Z" fill="#FAB73B"/>
    </g>
  </symbol>

<symbol viewBox="0 0 25 25" id="google">
<g clip-path="url(#clip0_1015_2050)">
<path d="M24.4141 12.7832C24.4141 19.6924 19.6826 24.6094 12.6953 24.6094C5.99609 24.6094 0.585938 19.1992 0.585938 12.5C0.585938 5.80078 5.99609 0.390625 12.6953 0.390625C15.957 0.390625 18.7012 1.58691 20.8154 3.55957L17.5195 6.72852C13.208 2.56836 5.19043 5.69336 5.19043 12.5C5.19043 16.7236 8.56445 20.1465 12.6953 20.1465C17.4902 20.1465 19.2871 16.709 19.5703 14.9268H12.6953V10.7617H24.2236C24.3359 11.3818 24.4141 11.9775 24.4141 12.7832Z" fill="black"/>
</g>
<defs>
<clipPath id="clip0_1015_2050">
<rect width="25" height="25" fill="white"/>
</clipPath>
</defs>
</symbol>

  
<symbol viewBox="0 0 87 92" id="satisfaction-client">
<mask id="mask0_1012_2070" style="mask-type:alpha" maskUnits="userSpaceOnUse" x="0" y="0" width="87" height="92">
<rect x="0.5" width="86" height="91.2653" fill="#D9D9D9"/>
</mask>
<g mask="url(#mask0_1012_2070)">
<path d="M43.5 64.2073C46.918 64.2073 50.066 63.2067 52.9441 61.2054C55.8223 59.204 57.985 56.5482 59.432 53.2379H27.568C29.015 56.5482 31.1777 59.204 34.0559 61.2054C36.934 63.2067 40.082 64.2073 43.5 64.2073ZM28.45 40.2209L32.3917 36.0818L36.2919 40.2209L38.5384 37.8369L32.3917 31.2699L26.2035 37.8369L28.45 40.2209ZM50.7081 40.2209L54.6083 36.0818L58.55 40.2209L60.7965 37.8369L54.6083 31.2699L48.4616 37.8369L50.7081 40.2209ZM43.512 79.8569C39.0524 79.8569 34.8596 78.9589 30.9336 77.1628C27.0076 75.3667 23.5926 72.9291 20.6884 69.85C17.7843 66.7709 15.4852 63.1502 13.7911 58.9878C12.097 54.8253 11.25 50.3778 11.25 45.6452C11.25 40.9125 12.0962 36.463 13.7887 32.2967C15.4812 28.1304 17.7782 24.5062 20.6796 21.4242C23.5811 18.3423 26.9929 15.9025 30.9152 14.1047C34.8375 12.3069 39.0284 11.408 43.488 11.408C47.9476 11.408 52.1404 12.306 56.0664 14.1021C59.9923 15.8982 63.4074 18.3359 66.3116 21.4149C69.2157 24.494 71.5148 28.1147 73.2089 32.2771C74.903 36.4396 75.75 40.8871 75.75 45.6197C75.75 50.3524 74.9038 54.8019 73.2113 58.9682C71.5188 63.1345 69.2218 66.7587 66.3204 69.8407C63.4189 72.9226 60.0071 75.3624 56.0848 77.1602C52.1625 78.958 47.9716 79.8569 43.512 79.8569ZM43.5 76.0542C51.5028 76.0542 58.2812 73.1071 63.8354 67.2129C69.3896 61.3187 72.1667 54.1252 72.1667 45.6325C72.1667 37.1397 69.3896 29.9462 63.8354 24.052C58.2812 18.1578 51.5028 15.2107 43.5 15.2107C35.4972 15.2107 28.7188 18.1578 23.1646 24.052C17.6104 29.9462 14.8333 37.1397 14.8333 45.6325C14.8333 54.1252 17.6104 61.3187 23.1646 67.2129C28.7188 73.1071 35.4972 76.0542 43.5 76.0542Z" fill="#FAB73B"/>
</g>
</symbol>


<symbol viewBox="0 0 87 92" id="garantie">
<mask id="mask0_1012_2100" style="mask-type:alpha" maskUnits="userSpaceOnUse" x="0" y="0" width="87" height="92">
<rect x="0.5" width="86" height="91.2653" fill="#D9D9D9"/>
</mask>
<g mask="url(#mask0_1012_2100)">
<path d="M39.7378 56.4997L57.5029 37.6469L54.9463 34.9338L39.7378 51.0735L32.075 42.9415L29.5184 45.6546L39.7378 56.4997ZM43.5003 79.7109C36.3015 77.4439 30.3212 72.816 25.5596 65.8273C20.7978 58.8386 18.417 50.9662 18.417 42.2102V21.6462L43.5003 11.7007L68.5837 21.6462V42.2102C68.5837 50.9662 66.2028 58.8386 61.4411 65.8273C56.6794 72.816 50.6992 77.4439 43.5003 79.7109ZM43.5003 75.6741C49.7114 73.5826 54.8476 69.3997 58.9087 63.1252C62.9698 56.8507 65.0003 49.879 65.0003 42.2102V24.2423L43.5003 15.7593L22.0003 24.2423V42.2102C22.0003 49.879 24.0309 56.8507 28.092 63.1252C32.1531 69.3997 37.2892 73.5826 43.5003 75.6741Z" fill="#FAB73B"/>
</g>
</symbol>

<symbol viewBox="0 0 87 92" id="eco">
<mask id="mask0_1012_2058" style="mask-type:alpha" maskUnits="userSpaceOnUse" x="0" y="0" width="87" height="92">
<rect x="0.5" width="86" height="91.2653" fill="#D9D9D9"/>
</mask>
<g mask="url(#mask0_1012_2058)">
<path d="M22.3314 71.864C19.9655 69.3289 18.1244 66.43 16.8082 63.1674C15.4921 59.9049 14.834 56.5317 14.834 53.0479C14.834 49.5425 15.4702 46.0482 16.7427 42.5648C18.0153 39.0814 20.0574 35.8479 22.8689 32.8642C25.1429 30.4509 28.0245 28.5374 31.5137 27.1235C35.0028 25.7097 38.7952 24.6774 42.8908 24.0266C46.9863 23.3757 51.2312 23.0161 55.6254 22.9478C60.0196 22.8796 64.2518 22.9917 68.3221 23.2843C68.6161 27.4673 68.731 31.8794 68.6667 36.5207C68.6023 41.162 68.2475 45.6631 67.6021 50.0241C66.9566 54.385 65.9712 58.4314 64.6458 62.1635C63.3204 65.8955 61.5368 68.9511 59.2949 71.3302C56.5431 74.2993 53.5742 76.4627 50.3883 77.8204C47.2023 79.1782 44.0046 79.8571 40.7952 79.8571C37.4305 79.8571 34.1036 79.1587 30.8143 77.762C27.525 76.3652 24.6973 74.3992 22.3314 71.864ZM28.368 72.1346C30.2377 73.4558 32.2672 74.4394 34.4562 75.0854C36.6452 75.7314 38.7642 76.0544 40.8132 76.0544C43.5914 76.0544 46.3395 75.4803 49.0574 74.3322C51.7753 73.184 54.3356 71.2863 56.7383 68.6391C57.8047 67.4982 58.8859 65.8979 59.9819 63.8381C61.0779 61.7783 62.0258 59.0847 62.8256 55.7573C63.6254 52.43 64.2326 48.4054 64.6473 43.6837C65.062 38.962 65.166 33.3371 64.9593 26.8091C62.0329 26.6824 58.7103 26.6592 54.9914 26.7396C51.2726 26.8201 47.5572 27.1577 43.8452 27.7525C40.1332 28.3473 36.6464 29.2541 33.3846 30.4729C30.1229 31.6917 27.5158 33.3371 25.5633 35.4092C22.9217 38.2124 21.0703 41.1181 20.0091 44.1261C18.9479 47.1342 18.4173 49.9374 18.4173 52.536C18.4173 55.9828 19.0662 59.2017 20.3641 62.1927C21.6619 65.1837 23.2319 67.5178 25.0741 69.1948C26.5717 64.7096 28.8871 60.4059 32.0202 56.2838C35.1533 52.1618 39.5361 48.3189 45.1683 44.755C41.0521 48.5529 37.5916 52.5933 34.787 56.8762C31.9823 61.1591 29.8426 66.2453 28.368 72.1346Z" fill="#FAB73B"/>
</g>
</symbol>


  <symbol viewBox="0 0 87 92" id="engagements-time">
    <g id="acute">
    <mask id="mask0_347_1389" style="mask-type:alpha" maskUnits="userSpaceOnUse" x="0" y="0" width="87" height="92">
    <rect id="Bounding box" x="0.5" width="86" height="91.2653" fill="#D9D9D9"/>
    </mask>
    <g mask="url(#mask0_347_1389)">
    <path id="acute_2" d="M53.5905 72.2518C46.5797 72.2518 40.6414 69.67 35.7758 64.5064C30.9101 59.3429 28.4772 53.0411 28.4772 45.6011C28.4772 38.2166 30.9101 31.9393 35.7758 26.769C40.6414 21.5988 46.5797 19.0137 53.5905 19.0137C60.5489 19.0137 66.4641 21.5988 71.336 26.769C76.208 31.9393 78.644 38.2166 78.644 45.6011C78.644 53.0411 76.208 59.3429 71.336 64.5064C66.4641 69.67 60.5489 72.2518 53.5905 72.2518ZM53.5606 68.449C59.5329 68.449 64.6092 66.2308 68.7898 61.7943C72.9704 57.3578 75.0606 51.9706 75.0606 45.6327C75.0606 39.2949 72.9704 33.9077 68.7898 29.4712C64.6092 25.0346 59.5329 22.8164 53.5606 22.8164C47.5884 22.8164 42.512 25.0346 38.3315 29.4712C34.1509 33.9077 32.0606 39.2949 32.0606 45.6327C32.0606 51.9706 34.1509 57.3578 38.3315 61.7943C42.512 66.2308 47.5884 68.449 53.5606 68.449ZM62.4018 57.8234L64.9584 55.1102L55.3523 44.916V31.5919H51.769V46.4445L62.4018 57.8234ZM11.9388 32.3232V28.5205H24.8939V32.3232H11.9388ZM8.35547 47.5341V43.7314H24.8939V47.5341H8.35547ZM11.9388 62.745V58.9422H24.8939V62.745H11.9388Z" fill="#FAB73B"/>
    </g>
    </g>
  </symbol>

  <symbol viewBox="0 0 43 43" id="facebook">
    <g id="facebook logo" clip-path="url(#clip0_766_2040)">
    <path id="Vector" d="M21.5 42.7651C33.098 42.7651 42.5 33.3631 42.5 21.7651C42.5 10.1672 33.098 0.765137 21.5 0.765137C9.90202 0.765137 0.5 10.1672 0.5 21.7651C0.5 33.3631 9.90202 42.7651 21.5 42.7651Z" fill="white"/>
    <path id="Vector_2" d="M29.3851 27.7481L30.2653 21.6403H24.7551V17.6773C24.7551 16.0078 25.5235 14.3768 27.9936 14.3768H30.5V9.17807C30.5 9.17807 28.2255 8.76514 26.0516 8.76514C21.5138 8.76514 18.5464 11.6883 18.5464 16.9851V21.6403H13.5V27.7481H18.5464V42.5097C19.5579 42.679 20.5945 42.7651 21.6507 42.7651C22.7069 42.7651 23.7436 42.676 24.7551 42.5097V27.7481H29.3851Z" fill="#031F3E"/>
    </g>
    <defs>
    <clipPath id="clip0_766_2040">
    <rect width="42" height="42" fill="white" transform="translate(0.5 0.765137)"/>
    </clipPath>
    </defs>
  </symbol>

  <symbol viewBox="0 0 43 43" id="instagram">
    <path d="M14.5017 21.7651C14.5017 17.8993 17.6348 14.7646 21.5008 14.7646C25.3668 14.7646 28.5017 17.8993 28.5017 21.7651C28.5017 25.631 25.3668 28.7657 21.5008 28.7657C17.6348 28.7657 14.5017 25.631 14.5017 21.7651ZM10.7172 21.7651C10.7172 27.7207 15.545 32.5484 21.5008 32.5484C27.4567 32.5484 32.2845 27.7207 32.2845 21.7651C32.2845 15.8095 27.4567 10.9819 21.5008 10.9819C15.545 10.9819 10.7172 15.8095 10.7172 21.7651ZM30.1913 10.5543C30.1908 11.9461 31.3186 13.0748 32.7104 13.0753C34.1022 13.0759 35.231 11.9481 35.2315 10.5563C35.2321 9.16459 34.1042 8.03589 32.7124 8.03534C31.3213 8.03598 30.1925 9.16323 30.1913 10.5543ZM13.0165 38.8586C10.969 38.7654 9.85613 38.4244 9.11656 38.1362C8.13607 37.7545 7.43649 37.2999 6.70096 36.5654C5.96543 35.8309 5.51013 35.1321 5.1301 34.1516C4.8418 33.4124 4.50074 32.2992 4.40767 30.2518C4.30586 28.0383 4.28553 27.3733 4.28553 21.7653C4.28553 16.1573 4.30754 15.4942 4.40767 13.2788C4.50091 11.2314 4.84449 10.1204 5.1301 9.379C5.51181 8.39855 5.96643 7.699 6.70096 6.9635C7.43549 6.22799 8.13439 5.77271 9.11656 5.3927C9.85579 5.10441 10.969 4.76337 13.0165 4.6703C15.2302 4.56849 15.8951 4.54816 21.5008 4.54816C27.1066 4.54816 27.7722 4.57017 29.9877 4.6703C32.0352 4.76354 33.1462 5.1071 33.8876 5.3927C34.8681 5.77271 35.5677 6.229 36.3032 6.9635C37.0388 7.69799 37.4924 8.39855 37.8741 9.379C38.1624 10.1182 38.5035 11.2314 38.5965 13.2788C38.6983 15.4942 38.7187 16.1573 38.7187 21.7653C38.7187 27.3733 38.6983 28.0364 38.5965 30.2518C38.5033 32.2992 38.1606 33.4121 37.8741 34.1516C37.4924 35.1321 37.0378 35.8316 36.3032 36.5654C35.5687 37.2993 34.8681 37.7545 33.8876 38.1362C33.1484 38.4245 32.0352 38.7656 29.9877 38.8586C27.774 38.9604 27.1091 38.9808 21.5008 38.9808C15.8926 38.9808 15.2295 38.9604 13.0165 38.8586ZM12.8426 0.892313C10.6069 0.994121 9.07926 1.3486 7.74512 1.86772C6.36343 2.40381 5.19377 3.12302 4.02495 4.28994C2.85613 5.45687 2.13874 6.62834 1.60263 8.00997C1.08349 9.3449 0.728993 10.8717 0.627181 13.1073C0.523689 15.3464 0.5 16.0622 0.5 21.7651C0.5 27.4681 0.523689 28.1839 0.627181 30.423C0.728993 32.6588 1.08349 34.1854 1.60263 35.5203C2.13874 36.9011 2.85629 38.0739 4.02495 39.2403C5.1936 40.4068 6.36343 41.125 7.74512 41.6626C9.08178 42.1817 10.6069 42.5362 12.8426 42.638C15.083 42.7398 15.7977 42.7651 21.5008 42.7651C27.204 42.7651 27.9199 42.7414 30.1591 42.638C32.3949 42.5362 33.9216 42.1817 35.2566 41.6626C36.6374 41.125 37.8079 40.4073 38.9767 39.2403C40.1456 38.0734 40.8614 36.9011 41.3991 35.5203C41.9182 34.1854 42.2744 32.6586 42.3745 30.423C42.4763 28.1822 42.5 27.4681 42.5 21.7651C42.5 16.0622 42.4763 15.3464 42.3745 13.1073C42.2727 10.8715 41.9182 9.34406 41.3991 8.00997C40.8614 6.62918 40.1437 5.45872 38.9767 4.28994C37.8098 3.12117 36.6374 2.40381 35.2582 1.86772C33.9216 1.3486 32.3947 0.992441 30.1607 0.892313C27.9216 0.790505 27.2057 0.765137 21.5025 0.765137C15.7994 0.765137 15.083 0.788825 12.8426 0.892313Z" fill="white"/>
  </symbol>

  <symbol viewBox="0 0 43 51" id="twitter">
    <g clip-path="url(#clip0_766_2043)">
    <path d="M49.5 5.49748C47.6977 6.30082 45.7619 6.84389 43.7265 7.088C45.8038 5.83854 47.3951 3.8586 48.1465 1.50214C46.1733 2.67937 44.0138 3.50813 41.7618 3.95244C39.9291 1.99022 37.3157 0.765137 34.4244 0.765137C28.8748 0.765137 24.374 5.28426 24.374 10.862C24.374 11.6523 24.4626 12.4234 24.6329 13.1636C16.2787 12.7419 8.87206 8.72218 3.91442 2.61423C3.04875 4.10596 2.55325 5.84037 2.55325 7.6909C2.55325 11.1935 4.32806 14.2838 7.02485 16.0941C5.42839 16.0444 3.86697 15.6115 2.47112 14.8317V14.9593C2.47112 19.8518 5.93549 23.9313 10.5342 24.8591C9.68946 25.0916 8.8029 25.2131 7.88572 25.2131C7.23724 25.2131 6.6081 25.1515 5.99349 25.0353C7.27267 29.0454 10.985 31.9643 15.3824 32.0468C11.9421 34.7557 7.60728 36.3705 2.89915 36.3705C2.08823 36.3705 1.28679 36.3219 0.5 36.2266C4.94916 39.0922 10.2318 40.7651 15.9086 40.7651C34.3971 40.7651 44.5085 25.3797 44.5085 12.0372C44.5085 11.5992 44.4989 11.1644 44.4779 10.7312C46.4479 9.29987 48.1485 7.52764 49.5 5.49748Z" fill="white"/>
    </g>
    <defs>
    <clipPath id="clip0_766_2043">
    <rect width="51" height="42" fill="white" transform="translate(0.5 0.765137)"/>
    </clipPath>
    </defs>
  </symbol>

  <symbol viewBox="0 0 35 35" id="mobile-menu">
    <mask id="mask0_92_305" style="mask-type:alpha" maskUnits="userSpaceOnUse" x="0" y="0" width="35" height="35">
    <rect width="35" height="35" fill="#D9D9D9"/>
    </mask>
    <g mask="url(#mask0_92_305)">
    <path d="M4.375 26.25V23.3333H30.625V26.25H4.375ZM4.375 18.9583V16.0417H30.625V18.9583H4.375ZM4.375 11.6667V8.75H30.625V11.6667H4.375Z" fill="white"/>
    </g>
  </symbol>

</svg>